<svg width="559" height="298" viewBox="0 0 559 298" fill="none" xmlns="http://www.w3.org/2000/svg">
<rect width="559" height="298" fill="white"/>
<ellipse cx="396.5" cy="215" rx="11.5" ry="12" fill="white" stroke="#9B9A9B" stroke-width="0.25" stroke-linecap="round"/>
<ellipse cx="396.5" cy="173" rx="11.5" ry="12" fill="white" stroke="#9B9A9B" stroke-width="0.25" stroke-linecap="round"/>
<ellipse cx="396.5" cy="130" rx="11.5" ry="12" fill="white" stroke="#9B9A9B" stroke-width="0.25" stroke-linecap="round"/>
<ellipse cx="396.5" cy="87" rx="11.5" ry="12" fill="white" stroke="#9B9A9B" stroke-width="0.25" stroke-linecap="round"/>
<circle cx="386.5" cy="207.5" r="4.5" fill="#06A857"/>
<circle cx="386.5" cy="165.5" r="4.5" fill="#06A857"/>
<circle cx="386.5" cy="122.5" r="4.5" fill="#06A857"/>
<circle cx="386.5" cy="79.5" r="4.5" fill="#06A857"/>
<path d="M384.865 209.148V208.615L386.751 205.636H387.171V206.42H386.904L385.556 208.555V208.589H388.14V209.148H384.865ZM386.934 210V208.986L386.938 208.743V205.636H387.563V210H386.934Z" fill="white"/>
<path d="M386.505 168.06C386.213 168.06 385.951 168.009 385.721 167.908C385.493 167.808 385.311 167.668 385.178 167.489C385.046 167.308 384.975 167.099 384.965 166.862H385.634C385.642 166.991 385.686 167.104 385.764 167.199C385.843 167.293 385.947 167.365 386.075 167.416C386.203 167.467 386.345 167.493 386.501 167.493C386.673 167.493 386.825 167.463 386.957 167.403C387.091 167.344 387.195 167.261 387.27 167.154C387.346 167.046 387.383 166.922 387.383 166.781C387.383 166.635 387.346 166.506 387.27 166.396C387.196 166.283 387.088 166.195 386.944 166.131C386.802 166.067 386.63 166.036 386.429 166.036H386.06V165.499H386.429C386.591 165.499 386.733 165.469 386.855 165.411C386.978 165.353 387.075 165.272 387.145 165.168C387.214 165.063 387.249 164.94 387.249 164.8C387.249 164.665 387.218 164.548 387.157 164.448C387.098 164.347 387.012 164.268 386.902 164.212C386.792 164.155 386.663 164.126 386.514 164.126C386.372 164.126 386.239 164.153 386.115 164.205C385.993 164.256 385.894 164.33 385.817 164.427C385.74 164.522 385.699 164.636 385.694 164.77H385.056C385.064 164.534 385.133 164.327 385.265 164.148C385.399 163.969 385.575 163.829 385.794 163.728C386.012 163.627 386.255 163.577 386.522 163.577C386.802 163.577 387.044 163.631 387.247 163.741C387.451 163.849 387.609 163.993 387.72 164.173C387.832 164.354 387.887 164.551 387.886 164.766C387.887 165.01 387.819 165.217 387.681 165.388C387.545 165.558 387.363 165.673 387.136 165.731V165.765C387.426 165.809 387.65 165.924 387.809 166.11C387.97 166.296 388.049 166.527 388.048 166.803C388.049 167.043 387.983 167.258 387.848 167.448C387.714 167.638 387.532 167.788 387.3 167.898C387.069 168.006 386.804 168.06 386.505 168.06Z" fill="white"/>
<path d="M385.08 125V124.523L386.556 122.993C386.714 122.827 386.844 122.681 386.946 122.556C387.05 122.43 387.127 122.31 387.179 122.196C387.23 122.082 387.255 121.962 387.255 121.834C387.255 121.689 387.221 121.564 387.153 121.459C387.085 121.352 386.992 121.271 386.874 121.214C386.756 121.156 386.623 121.126 386.475 121.126C386.319 121.126 386.183 121.158 386.066 121.222C385.95 121.286 385.86 121.376 385.798 121.493C385.735 121.609 385.704 121.746 385.704 121.902H385.076C385.076 121.636 385.137 121.404 385.259 121.205C385.381 121.006 385.549 120.852 385.762 120.743C385.975 120.632 386.217 120.577 386.488 120.577C386.762 120.577 387.004 120.631 387.213 120.741C387.423 120.849 387.587 120.996 387.705 121.184C387.823 121.37 387.882 121.58 387.882 121.815C387.882 121.977 387.851 122.135 387.79 122.29C387.73 122.445 387.626 122.617 387.477 122.808C387.328 122.996 387.12 123.226 386.855 123.496L385.988 124.403V124.435H387.952V125H385.08Z" fill="white"/>
<path d="M387.157 77.6364V82H386.497V78.2969H386.471L385.427 78.9787V78.348L386.516 77.6364H387.157Z" fill="white"/>
<circle cx="107" cy="168" r="72" fill="#A45DFF"/>
<circle cx="219" cy="168" r="72" fill="#9747FF"/>
<circle cx="162" cy="234" r="32" fill="#A45DFF" fill-opacity="0.78"/>
<circle cx="162.5" cy="167.5" r="4.5" fill="#06A857"/>
<path d="M161.08 170V169.523L162.556 167.993C162.714 167.827 162.844 167.681 162.946 167.556C163.05 167.43 163.127 167.31 163.179 167.196C163.23 167.082 163.255 166.962 163.255 166.834C163.255 166.689 163.221 166.564 163.153 166.459C163.085 166.352 162.992 166.271 162.874 166.214C162.756 166.156 162.623 166.126 162.475 166.126C162.319 166.126 162.183 166.158 162.066 166.222C161.95 166.286 161.86 166.376 161.798 166.493C161.735 166.609 161.704 166.746 161.704 166.902H161.076C161.076 166.636 161.137 166.404 161.259 166.205C161.381 166.006 161.549 165.852 161.762 165.743C161.975 165.632 162.217 165.577 162.488 165.577C162.762 165.577 163.004 165.631 163.213 165.741C163.423 165.849 163.587 165.996 163.705 166.184C163.823 166.37 163.882 166.58 163.882 166.815C163.882 166.977 163.851 167.135 163.79 167.29C163.73 167.445 163.626 167.617 163.477 167.808C163.328 167.996 163.12 168.226 162.855 168.496L161.988 169.403V169.435H163.952V170H161.08Z" fill="white"/>
<circle cx="410.5" cy="255.5" r="4.5" fill="#06A857"/>
<path d="M409.08 258V257.523L410.556 255.993C410.714 255.827 410.844 255.681 410.946 255.556C411.05 255.43 411.127 255.31 411.179 255.196C411.23 255.082 411.255 254.962 411.255 254.834C411.255 254.689 411.221 254.564 411.153 254.459C411.085 254.352 410.992 254.271 410.874 254.214C410.756 254.156 410.623 254.126 410.475 254.126C410.319 254.126 410.183 254.158 410.066 254.222C409.95 254.286 409.86 254.376 409.798 254.493C409.735 254.609 409.704 254.746 409.704 254.902H409.076C409.076 254.636 409.137 254.404 409.259 254.205C409.381 254.006 409.549 253.852 409.762 253.743C409.975 253.632 410.217 253.577 410.488 253.577C410.762 253.577 411.004 253.631 411.213 253.741C411.423 253.849 411.587 253.996 411.705 254.184C411.823 254.37 411.882 254.58 411.882 254.815C411.882 254.977 411.851 255.135 411.79 255.29C411.73 255.445 411.626 255.617 411.477 255.808C411.328 255.996 411.12 256.226 410.855 256.496L409.988 257.403V257.435H411.952V258H409.08Z" fill="white"/>
<circle cx="125.5" cy="132.5" r="4.5" fill="#06A857"/>
<path d="M125.505 135.06C125.213 135.06 124.951 135.009 124.721 134.908C124.493 134.808 124.311 134.668 124.178 134.489C124.046 134.308 123.975 134.099 123.965 133.862H124.634C124.642 133.991 124.686 134.104 124.764 134.199C124.843 134.293 124.947 134.365 125.075 134.416C125.203 134.467 125.345 134.493 125.501 134.493C125.673 134.493 125.825 134.463 125.957 134.403C126.091 134.344 126.195 134.261 126.27 134.154C126.346 134.046 126.383 133.922 126.383 133.781C126.383 133.635 126.346 133.506 126.27 133.396C126.196 133.283 126.088 133.195 125.944 133.131C125.802 133.067 125.63 133.036 125.429 133.036H125.06V132.499H125.429C125.591 132.499 125.733 132.469 125.855 132.411C125.978 132.353 126.075 132.272 126.145 132.168C126.214 132.063 126.249 131.94 126.249 131.8C126.249 131.665 126.218 131.548 126.157 131.448C126.098 131.347 126.012 131.268 125.902 131.212C125.792 131.155 125.663 131.126 125.514 131.126C125.372 131.126 125.239 131.153 125.115 131.205C124.993 131.256 124.894 131.33 124.817 131.427C124.74 131.522 124.699 131.636 124.694 131.77H124.056C124.064 131.534 124.133 131.327 124.265 131.148C124.399 130.969 124.575 130.829 124.794 130.728C125.012 130.627 125.255 130.577 125.522 130.577C125.802 130.577 126.044 130.631 126.247 130.741C126.451 130.849 126.609 130.993 126.72 131.173C126.832 131.354 126.887 131.551 126.886 131.766C126.887 132.01 126.819 132.217 126.681 132.388C126.545 132.558 126.363 132.673 126.136 132.731V132.765C126.426 132.809 126.65 132.924 126.809 133.11C126.97 133.296 127.049 133.527 127.048 133.803C127.049 134.043 126.983 134.258 126.848 134.448C126.714 134.638 126.532 134.788 126.3 134.898C126.069 135.006 125.804 135.06 125.505 135.06Z" fill="white"/>
<circle cx="433.5" cy="255.5" r="4.5" fill="#06A857"/>
<path d="M433.505 258.06C433.213 258.06 432.951 258.009 432.721 257.908C432.493 257.808 432.311 257.668 432.178 257.489C432.046 257.308 431.975 257.099 431.965 256.862H432.634C432.642 256.991 432.686 257.104 432.764 257.199C432.843 257.293 432.947 257.365 433.075 257.416C433.203 257.467 433.345 257.493 433.501 257.493C433.673 257.493 433.825 257.463 433.957 257.403C434.091 257.344 434.195 257.261 434.27 257.154C434.346 257.046 434.383 256.922 434.383 256.781C434.383 256.635 434.346 256.506 434.27 256.396C434.196 256.283 434.088 256.195 433.944 256.131C433.802 256.067 433.63 256.036 433.429 256.036H433.06V255.499H433.429C433.591 255.499 433.733 255.469 433.855 255.411C433.978 255.353 434.075 255.272 434.145 255.168C434.214 255.063 434.249 254.94 434.249 254.8C434.249 254.665 434.218 254.548 434.157 254.448C434.098 254.347 434.012 254.268 433.902 254.212C433.792 254.155 433.663 254.126 433.514 254.126C433.372 254.126 433.239 254.153 433.115 254.205C432.993 254.256 432.894 254.33 432.817 254.427C432.74 254.522 432.699 254.636 432.694 254.77H432.056C432.064 254.534 432.133 254.327 432.265 254.148C432.399 253.969 432.575 253.829 432.794 253.728C433.012 253.627 433.255 253.577 433.522 253.577C433.802 253.577 434.044 253.631 434.247 253.741C434.451 253.849 434.609 253.993 434.72 254.173C434.832 254.354 434.887 254.551 434.886 254.766C434.887 255.01 434.819 255.217 434.681 255.388C434.545 255.558 434.363 255.673 434.136 255.731V255.765C434.426 255.809 434.65 255.924 434.809 256.11C434.97 256.296 435.049 256.527 435.048 256.803C435.049 257.043 434.983 257.258 434.848 257.448C434.714 257.638 434.532 257.788 434.3 257.898C434.069 258.006 433.804 258.06 433.505 258.06Z" fill="white"/>
<circle cx="194.5" cy="132.5" r="4.5" fill="#06A857"/>
<path d="M192.865 134.148V133.615L194.751 130.636H195.171V131.42H194.904L193.556 133.555V133.589H196.14V134.148H192.865ZM194.934 135V133.986L194.938 133.743V130.636H195.563V135H194.934Z" fill="white"/>
<circle cx="456.5" cy="255.5" r="4.5" fill="#06A857"/>
<path d="M454.865 257.148V256.615L456.751 253.636H457.171V254.42H456.904L455.556 256.555V256.589H458.14V257.148H454.865ZM456.934 258V256.986L456.938 256.743V253.636H457.563V258H456.934Z" fill="white"/>
<circle cx="145.5" cy="217.5" r="4.5" fill="#06A857"/>
<path d="M146.157 215.636V220H145.497V216.297H145.471L144.427 216.979V216.348L145.516 215.636H146.157Z" fill="white"/>
<path d="M146.157 215.636V220H145.497V216.297H145.471L144.427 216.979V216.348L145.516 215.636H146.157Z" fill="white"/>
<circle cx="387.5" cy="255.5" r="4.5" fill="#06A857"/>
<path d="M388.157 253.636V258H387.497V254.297H387.471L386.427 254.979V254.348L387.516 253.636H388.157Z" fill="white"/>
<path d="M398.521 258.538V253.737H399.477V258.538H398.521ZM396.6 256.614V255.658H401.401V256.614H396.6Z" fill="#06A857"/>
<path d="M421.521 258.538V253.737H422.477V258.538H421.521ZM419.6 256.614V255.658H424.401V256.614H419.6Z" fill="#06A857"/>
<path d="M444.521 258.538V253.737H445.477V258.538H444.521ZM442.6 256.614V255.658H447.401V256.614H442.6Z" fill="#06A857"/>
<circle cx="179.5" cy="217.5" r="4.5" fill="#06A857"/>
<path d="M180.157 215.636V220H179.497V216.297H179.471L178.427 216.979V216.348L179.516 215.636H180.157Z" fill="white"/>
<path d="M180.157 215.636V220H179.497V216.297H179.471L178.427 216.979V216.348L179.516 215.636H180.157Z" fill="white"/>
<path d="M125.716 73.336C126.74 73.936 128.052 74.856 128.844 75.496L128.372 76.056C127.636 75.384 126.268 74.4 125.276 73.784L125.716 73.336ZM129.372 71.88C129.308 71.992 129.228 72.176 129.188 72.304C128.948 73.12 128.444 74.184 127.74 75.048C127.012 75.944 125.972 76.8 124.452 77.36L123.884 76.856C125.372 76.408 126.46 75.56 127.18 74.704C127.796 73.968 128.3 72.952 128.484 72.208H125.524L125.78 71.632H128.324C128.54 71.632 128.716 71.608 128.844 71.56L129.372 71.88ZM126.676 70.72C126.54 70.928 126.396 71.2 126.316 71.352C125.844 72.232 124.94 73.44 123.66 74.32L123.132 73.912C124.5 73.056 125.324 71.856 125.692 71.12C125.772 70.984 125.9 70.696 125.948 70.488L126.676 70.72ZM131.116 73.536C131.364 73.56 131.78 73.584 132.236 73.584C132.82 73.584 136.028 73.584 136.62 73.584C137.02 73.584 137.3 73.552 137.484 73.536V74.32C137.316 74.312 136.98 74.288 136.628 74.288C136.02 74.288 132.828 74.288 132.236 74.288C131.796 74.288 131.372 74.304 131.116 74.32V73.536ZM144.3 70.688C144.5 70.976 144.788 71.456 144.948 71.784L144.516 71.976C144.364 71.656 144.092 71.168 143.876 70.872L144.3 70.688ZM145.172 70.368C145.388 70.656 145.692 71.16 145.844 71.456L145.42 71.648C145.244 71.296 144.98 70.848 144.756 70.544L145.172 70.368ZM141.396 70.976C141.332 71.16 141.252 71.376 141.196 71.544C141.068 71.904 140.892 72.392 140.668 72.832C140.348 73.456 139.764 74.272 139.26 74.688L138.628 74.304C139.204 73.896 139.78 73.072 140.052 72.584C140.276 72.184 140.412 71.776 140.508 71.464C140.572 71.264 140.612 71.04 140.628 70.832L141.396 70.976ZM140.396 72.352C140.924 72.352 144.34 72.352 144.668 72.352C144.868 72.352 145.188 72.344 145.42 72.304V72.992C145.164 72.976 144.852 72.976 144.668 72.976C144.34 72.976 140.908 72.976 140.308 72.976L140.396 72.352ZM143.332 72.688C143.26 75.152 142.348 76.568 140.916 77.48L140.236 77.016C140.46 76.928 140.708 76.784 140.884 76.64C141.708 76.024 142.612 74.904 142.652 72.688H143.332ZM149.996 72.4C150.132 72.72 150.524 73.776 150.62 74.12L150.028 74.336C149.94 73.968 149.572 72.952 149.404 72.6L149.996 72.4ZM152.892 72.848C152.836 73.008 152.796 73.136 152.764 73.24C152.556 74.12 152.204 74.984 151.636 75.704C150.892 76.64 149.916 77.264 149.028 77.6L148.5 77.064C149.42 76.792 150.444 76.184 151.1 75.368C151.668 74.672 152.076 73.648 152.204 72.624L152.892 72.848ZM148.132 72.8C148.292 73.136 148.716 74.184 148.86 74.608L148.26 74.832C148.132 74.416 147.7 73.304 147.54 73.024L148.132 72.8ZM156.732 76.296C156.732 75.848 156.732 72.312 156.732 71.648C156.732 71.416 156.716 71.064 156.676 70.808H157.46C157.428 71.056 157.404 71.4 157.404 71.648C157.404 72.888 157.412 75.92 157.412 76.296C157.412 76.552 157.428 76.984 157.46 77.248H156.684C156.724 76.992 156.732 76.592 156.732 76.296ZM157.26 72.912C158.316 73.216 159.932 73.832 160.82 74.264L160.54 74.944C159.628 74.456 158.132 73.888 157.26 73.616V72.912ZM164.396 75.976C164.396 75.24 164.396 72.408 164.396 71.56C164.396 71.32 164.388 71.056 164.348 70.824H165.1C165.068 71.056 165.044 71.328 165.044 71.56C165.044 72.4 165.044 75.016 165.044 75.808C165.044 76.36 165.252 76.536 166.204 76.536C167.132 76.536 167.908 76.456 168.7 76.296L168.676 76.984C167.964 77.088 167.164 77.152 166.164 77.152C164.676 77.152 164.396 76.76 164.396 75.976ZM169.044 72.4C168.98 72.488 168.9 72.624 168.844 72.72C168.476 73.384 167.852 74.392 167.204 75.048L166.652 74.72C167.252 74.168 167.836 73.288 168.076 72.816C167.828 72.864 163.516 73.728 162.556 73.936L162.428 73.264C163.452 73.144 167.54 72.32 168.148 72.176C168.316 72.136 168.476 72.088 168.572 72.032L169.044 72.4ZM175.988 70.6C176.188 70.888 176.476 71.376 176.636 71.696L176.204 71.896C176.044 71.568 175.772 71.088 175.556 70.784L175.988 70.6ZM176.86 70.28C177.076 70.576 177.38 71.072 177.532 71.368L177.1 71.56C176.924 71.216 176.668 70.76 176.444 70.464L176.86 70.28ZM176.516 72.192C176.452 72.312 176.372 72.496 176.332 72.624C176.116 73.424 175.62 74.512 174.916 75.376C174.188 76.264 173.228 77 171.724 77.552L171.148 77.032C172.62 76.6 173.612 75.872 174.34 75.024C174.964 74.288 175.452 73.256 175.62 72.528H172.652L172.908 71.952C173.236 71.952 175.212 71.952 175.46 71.952C175.676 71.952 175.852 71.928 175.988 71.872L176.516 72.192ZM173.836 70.984C173.708 71.192 173.564 71.464 173.484 71.616C173.012 72.496 172.172 73.64 170.892 74.496L170.332 74.08C171.716 73.256 172.5 72.096 172.852 71.376C172.932 71.24 173.052 70.944 173.1 70.744L173.836 70.984ZM184.252 71.176C184.172 71.328 184.06 71.6 183.996 71.768C183.692 72.56 183.212 73.6 182.556 74.432C181.788 75.408 180.748 76.464 179.236 77.248L178.692 76.752C180.18 76.04 181.204 75.088 182.028 74.04C182.684 73.192 183.084 72.304 183.356 71.52C183.412 71.36 183.484 71.096 183.524 70.928L184.252 71.176ZM180.028 72.12C180.82 72.624 181.932 73.424 182.54 73.912C183.34 74.568 184.132 75.264 184.764 75.952L184.26 76.504C183.596 75.736 182.9 75.104 182.1 74.432C181.524 73.952 180.484 73.16 179.604 72.624L180.028 72.12ZM187.508 71.144C188.068 71.52 189.1 72.352 189.54 72.792L189.044 73.304C188.636 72.888 187.644 72.024 187.044 71.632L187.508 71.144ZM186.82 76.504C188.212 76.296 189.252 75.808 190.012 75.336C191.252 74.56 192.22 73.376 192.684 72.384L193.068 73.072C192.524 74.064 191.596 75.152 190.388 75.912C189.58 76.416 188.572 76.912 187.236 77.16L186.82 76.504ZM196.292 76.296C196.292 75.848 196.292 72.312 196.292 71.648C196.292 71.416 196.276 71.064 196.236 70.808H197.02C196.988 71.056 196.964 71.4 196.964 71.648C196.964 72.888 196.972 75.92 196.972 76.296C196.972 76.552 196.988 76.984 197.02 77.248H196.244C196.284 76.992 196.292 76.592 196.292 76.296ZM196.82 72.912C197.876 73.216 199.492 73.832 200.38 74.264L200.1 74.944C199.188 74.456 197.692 73.888 196.82 73.616V72.912Z" fill="black"/>
<path d="M223.392 158.344C223.352 158.144 223.304 157.968 223.248 157.8L223.96 157.68C223.976 157.824 224.008 158.056 224.04 158.232C224.088 158.584 224.968 162.976 225.08 163.504C225.136 163.728 225.2 164 225.28 164.232L224.544 164.368C224.504 164.096 224.48 163.848 224.424 163.616C224.344 163.112 223.488 158.76 223.392 158.344ZM221.136 159.504C221.336 159.488 221.552 159.472 221.808 159.448C222.528 159.368 225.288 158.928 226.048 158.776C226.28 158.736 226.488 158.688 226.624 158.648L226.752 159.32C226.632 159.328 226.392 159.368 226.176 159.4C225.352 159.528 222.624 159.96 221.92 160.08C221.704 160.12 221.512 160.16 221.28 160.216L221.136 159.504ZM221.112 161.808C221.304 161.8 221.608 161.768 221.816 161.736C222.672 161.624 225.648 161.136 226.608 160.96C226.912 160.904 227.144 160.848 227.312 160.8L227.448 161.472C227.28 161.488 227.024 161.536 226.728 161.584C225.664 161.744 222.776 162.216 221.968 162.36C221.656 162.416 221.432 162.464 221.256 162.512L221.112 161.808ZM228.984 160.536C229.232 160.56 229.648 160.584 230.104 160.584C230.688 160.584 233.896 160.584 234.488 160.584C234.888 160.584 235.168 160.552 235.352 160.536V161.32C235.184 161.312 234.848 161.288 234.496 161.288C233.888 161.288 230.696 161.288 230.104 161.288C229.664 161.288 229.24 161.304 228.984 161.32V160.536ZM238.528 162.976C238.528 162.24 238.528 159.408 238.528 158.56C238.528 158.32 238.52 158.056 238.48 157.824H239.232C239.2 158.056 239.176 158.328 239.176 158.56C239.176 159.4 239.176 162.016 239.176 162.808C239.176 163.36 239.384 163.536 240.336 163.536C241.264 163.536 242.04 163.456 242.832 163.296L242.808 163.984C242.096 164.088 241.296 164.152 240.296 164.152C238.808 164.152 238.528 163.76 238.528 162.976ZM243.176 159.4C243.112 159.488 243.032 159.624 242.976 159.72C242.608 160.384 241.984 161.392 241.336 162.048L240.784 161.72C241.384 161.168 241.968 160.288 242.208 159.816C241.96 159.864 237.648 160.728 236.688 160.936L236.56 160.264C237.584 160.144 241.672 159.32 242.28 159.176C242.448 159.136 242.608 159.088 242.704 159.032L243.176 159.4ZM250.12 157.6C250.32 157.888 250.608 158.376 250.768 158.696L250.336 158.896C250.176 158.568 249.904 158.088 249.688 157.784L250.12 157.6ZM250.992 157.28C251.208 157.576 251.512 158.072 251.664 158.368L251.232 158.56C251.056 158.216 250.8 157.76 250.576 157.464L250.992 157.28ZM250.648 159.192C250.584 159.312 250.504 159.496 250.464 159.624C250.248 160.424 249.752 161.512 249.048 162.376C248.32 163.264 247.36 164 245.856 164.552L245.28 164.032C246.752 163.6 247.744 162.872 248.472 162.024C249.096 161.288 249.584 160.256 249.752 159.528H246.784L247.04 158.952C247.368 158.952 249.344 158.952 249.592 158.952C249.808 158.952 249.984 158.928 250.12 158.872L250.648 159.192ZM247.968 157.984C247.84 158.192 247.696 158.464 247.616 158.616C247.144 159.496 246.304 160.64 245.024 161.496L244.464 161.08C245.848 160.256 246.632 159.096 246.984 158.376C247.064 158.24 247.184 157.944 247.232 157.744L247.968 157.984ZM258.384 158.176C258.304 158.328 258.192 158.6 258.128 158.768C257.824 159.56 257.344 160.6 256.688 161.432C255.92 162.408 254.88 163.464 253.368 164.248L252.824 163.752C254.312 163.04 255.336 162.088 256.16 161.04C256.816 160.192 257.216 159.304 257.488 158.52C257.544 158.36 257.616 158.096 257.656 157.928L258.384 158.176ZM254.16 159.12C254.952 159.624 256.064 160.424 256.672 160.912C257.472 161.568 258.264 162.264 258.896 162.952L258.392 163.504C257.728 162.736 257.032 162.104 256.232 161.432C255.656 160.952 254.616 160.16 253.736 159.624L254.16 159.12ZM261.64 158.144C262.2 158.52 263.232 159.352 263.672 159.792L263.176 160.304C262.768 159.888 261.776 159.024 261.176 158.632L261.64 158.144ZM260.952 163.504C262.344 163.296 263.384 162.808 264.144 162.336C265.384 161.56 266.352 160.376 266.816 159.384L267.2 160.072C266.656 161.064 265.728 162.152 264.52 162.912C263.712 163.416 262.704 163.912 261.368 164.16L260.952 163.504ZM270.424 163.296C270.424 162.848 270.424 159.312 270.424 158.648C270.424 158.416 270.408 158.064 270.368 157.808H271.152C271.12 158.056 271.096 158.4 271.096 158.648C271.096 159.888 271.104 162.92 271.104 163.296C271.104 163.552 271.12 163.984 271.152 164.248H270.376C270.416 163.992 270.424 163.592 270.424 163.296ZM270.952 159.912C272.008 160.216 273.624 160.832 274.512 161.264L274.232 161.944C273.32 161.456 271.824 160.888 270.952 160.616V159.912Z" fill="black"/>
<path d="M53.392 158.344C53.352 158.144 53.304 157.968 53.248 157.8L53.96 157.68C53.976 157.824 54.008 158.056 54.04 158.232C54.088 158.584 54.968 162.976 55.08 163.504C55.136 163.728 55.2 164 55.28 164.232L54.544 164.368C54.504 164.096 54.48 163.848 54.424 163.616C54.344 163.112 53.488 158.76 53.392 158.344ZM51.136 159.504C51.336 159.488 51.552 159.472 51.808 159.448C52.528 159.368 55.288 158.928 56.048 158.776C56.28 158.736 56.488 158.688 56.624 158.648L56.752 159.32C56.632 159.328 56.392 159.368 56.176 159.4C55.352 159.528 52.624 159.96 51.92 160.08C51.704 160.12 51.512 160.16 51.28 160.216L51.136 159.504ZM51.112 161.808C51.304 161.8 51.608 161.768 51.816 161.736C52.672 161.624 55.648 161.136 56.608 160.96C56.912 160.904 57.144 160.848 57.312 160.8L57.448 161.472C57.28 161.488 57.024 161.536 56.728 161.584C55.664 161.744 52.776 162.216 51.968 162.36C51.656 162.416 51.432 162.464 51.256 162.512L51.112 161.808ZM58.984 160.536C59.232 160.56 59.648 160.584 60.104 160.584C60.688 160.584 63.896 160.584 64.488 160.584C64.888 160.584 65.168 160.552 65.352 160.536V161.32C65.184 161.312 64.848 161.288 64.496 161.288C63.888 161.288 60.696 161.288 60.104 161.288C59.664 161.288 59.24 161.304 58.984 161.32V160.536ZM68.528 162.976C68.528 162.24 68.528 159.408 68.528 158.56C68.528 158.32 68.52 158.056 68.48 157.824H69.232C69.2 158.056 69.176 158.328 69.176 158.56C69.176 159.4 69.176 162.016 69.176 162.808C69.176 163.36 69.384 163.536 70.336 163.536C71.264 163.536 72.04 163.456 72.832 163.296L72.808 163.984C72.096 164.088 71.296 164.152 70.296 164.152C68.808 164.152 68.528 163.76 68.528 162.976ZM73.176 159.4C73.112 159.488 73.032 159.624 72.976 159.72C72.608 160.384 71.984 161.392 71.336 162.048L70.784 161.72C71.384 161.168 71.968 160.288 72.208 159.816C71.96 159.864 67.648 160.728 66.688 160.936L66.56 160.264C67.584 160.144 71.672 159.32 72.28 159.176C72.448 159.136 72.608 159.088 72.704 159.032L73.176 159.4ZM80.12 157.6C80.32 157.888 80.608 158.376 80.768 158.696L80.336 158.896C80.176 158.568 79.904 158.088 79.688 157.784L80.12 157.6ZM80.992 157.28C81.208 157.576 81.512 158.072 81.664 158.368L81.232 158.56C81.056 158.216 80.8 157.76 80.576 157.464L80.992 157.28ZM80.648 159.192C80.584 159.312 80.504 159.496 80.464 159.624C80.248 160.424 79.752 161.512 79.048 162.376C78.32 163.264 77.36 164 75.856 164.552L75.28 164.032C76.752 163.6 77.744 162.872 78.472 162.024C79.096 161.288 79.584 160.256 79.752 159.528H76.784L77.04 158.952C77.368 158.952 79.344 158.952 79.592 158.952C79.808 158.952 79.984 158.928 80.12 158.872L80.648 159.192ZM77.968 157.984C77.84 158.192 77.696 158.464 77.616 158.616C77.144 159.496 76.304 160.64 75.024 161.496L74.464 161.08C75.848 160.256 76.632 159.096 76.984 158.376C77.064 158.24 77.184 157.944 77.232 157.744L77.968 157.984ZM88.384 158.176C88.304 158.328 88.192 158.6 88.128 158.768C87.824 159.56 87.344 160.6 86.688 161.432C85.92 162.408 84.88 163.464 83.368 164.248L82.824 163.752C84.312 163.04 85.336 162.088 86.16 161.04C86.816 160.192 87.216 159.304 87.488 158.52C87.544 158.36 87.616 158.096 87.656 157.928L88.384 158.176ZM84.16 159.12C84.952 159.624 86.064 160.424 86.672 160.912C87.472 161.568 88.264 162.264 88.896 162.952L88.392 163.504C87.728 162.736 87.032 162.104 86.232 161.432C85.656 160.952 84.616 160.16 83.736 159.624L84.16 159.12ZM91.64 158.144C92.2 158.52 93.232 159.352 93.672 159.792L93.176 160.304C92.768 159.888 91.776 159.024 91.176 158.632L91.64 158.144ZM90.952 163.504C92.344 163.296 93.384 162.808 94.144 162.336C95.384 161.56 96.352 160.376 96.816 159.384L97.2 160.072C96.656 161.064 95.728 162.152 94.52 162.912C93.712 163.416 92.704 163.912 91.368 164.16L90.952 163.504ZM100.424 163.296C100.424 162.848 100.424 159.312 100.424 158.648C100.424 158.416 100.408 158.064 100.368 157.808H101.152C101.12 158.056 101.096 158.4 101.096 158.648C101.096 159.888 101.104 162.92 101.104 163.296C101.104 163.552 101.12 163.984 101.152 164.248H100.376C100.416 163.992 100.424 163.592 100.424 163.296ZM100.952 159.912C102.008 160.216 103.624 160.832 104.512 161.264L104.232 161.944C103.32 161.456 101.824 160.888 100.952 160.616V159.912Z" fill="black"/>
<path d="M140.024 238.328C140.024 240.456 139.56 241.552 137.736 242.376L137.2 241.864C138.656 241.312 139.376 240.624 139.376 238.376V236.432C139.376 236.12 139.352 235.856 139.336 235.784H140.064C140.056 235.864 140.024 236.12 140.024 236.432V238.328ZM137.136 235.832C137.128 235.904 137.104 236.136 137.104 236.408V239.344C137.104 239.64 137.128 239.992 137.136 240.064H136.424C136.432 239.992 136.464 239.648 136.464 239.344V236.408C136.464 236.24 136.448 236.016 136.424 235.832H137.136ZM134.8 237.384C134.872 237.392 135.264 237.44 135.6 237.44H140.896C141.256 237.44 141.52 237.408 141.632 237.392V238.072C141.544 238.064 141.256 238.048 140.904 238.048H135.6C135.248 238.048 134.888 238.072 134.8 238.072V237.384ZM148.216 235.352C148.408 235.632 148.696 236.104 148.856 236.408L148.408 236.608C148.248 236.28 147.976 235.824 147.776 235.536L148.216 235.352ZM149.248 235.152C149.44 235.424 149.736 235.896 149.904 236.208L149.456 236.4C149.28 236.072 149.024 235.608 148.808 235.336L149.248 235.152ZM148.936 236.792C148.888 236.904 148.848 237.04 148.816 237.192C148.648 238.032 148.256 239.328 147.624 240.144C146.896 241.088 145.944 241.824 144.48 242.288L143.936 241.688C145.48 241.296 146.384 240.616 147.048 239.76C147.616 239.04 147.992 237.92 148.096 237.152C147.64 237.152 144.464 237.152 144.008 237.152C143.688 237.152 143.416 237.168 143.208 237.184V236.472C143.432 236.496 143.744 236.528 144.008 236.528C144.464 236.528 147.656 236.528 148.024 236.528C148.144 236.528 148.304 236.52 148.448 236.48L148.936 236.792ZM152.528 240.976C152.528 240.24 152.528 237.408 152.528 236.56C152.528 236.32 152.52 236.056 152.48 235.824H153.232C153.2 236.056 153.176 236.328 153.176 236.56C153.176 237.4 153.176 240.016 153.176 240.808C153.176 241.36 153.384 241.536 154.336 241.536C155.264 241.536 156.04 241.456 156.832 241.296L156.808 241.984C156.096 242.088 155.296 242.152 154.296 242.152C152.808 242.152 152.528 241.76 152.528 240.976ZM157.176 237.4C157.112 237.488 157.032 237.624 156.976 237.72C156.608 238.384 155.984 239.392 155.336 240.048L154.784 239.72C155.384 239.168 155.968 238.288 156.208 237.816C155.96 237.864 151.648 238.728 150.688 238.936L150.56 238.264C151.584 238.144 155.672 237.32 156.28 237.176C156.448 237.136 156.608 237.088 156.704 237.032L157.176 237.4ZM164.12 235.6C164.32 235.888 164.608 236.376 164.768 236.696L164.336 236.896C164.176 236.568 163.904 236.088 163.688 235.784L164.12 235.6ZM164.992 235.28C165.208 235.576 165.512 236.072 165.664 236.368L165.232 236.56C165.056 236.216 164.8 235.76 164.576 235.464L164.992 235.28ZM164.648 237.192C164.584 237.312 164.504 237.496 164.464 237.624C164.248 238.424 163.752 239.512 163.048 240.376C162.32 241.264 161.36 242 159.856 242.552L159.28 242.032C160.752 241.6 161.744 240.872 162.472 240.024C163.096 239.288 163.584 238.256 163.752 237.528H160.784L161.04 236.952C161.368 236.952 163.344 236.952 163.592 236.952C163.808 236.952 163.984 236.928 164.12 236.872L164.648 237.192ZM161.968 235.984C161.84 236.192 161.696 236.464 161.616 236.616C161.144 237.496 160.304 238.64 159.024 239.496L158.464 239.08C159.848 238.256 160.632 237.096 160.984 236.376C161.064 236.24 161.184 235.944 161.232 235.744L161.968 235.984ZM172.384 236.176C172.304 236.328 172.192 236.6 172.128 236.768C171.824 237.56 171.344 238.6 170.688 239.432C169.92 240.408 168.88 241.464 167.368 242.248L166.824 241.752C168.312 241.04 169.336 240.088 170.16 239.04C170.816 238.192 171.216 237.304 171.488 236.52C171.544 236.36 171.616 236.096 171.656 235.928L172.384 236.176ZM168.16 237.12C168.952 237.624 170.064 238.424 170.672 238.912C171.472 239.568 172.264 240.264 172.896 240.952L172.392 241.504C171.728 240.736 171.032 240.104 170.232 239.432C169.656 238.952 168.616 238.16 167.736 237.624L168.16 237.12ZM175.64 236.144C176.2 236.52 177.232 237.352 177.672 237.792L177.176 238.304C176.768 237.888 175.776 237.024 175.176 236.632L175.64 236.144ZM174.952 241.504C176.344 241.296 177.384 240.808 178.144 240.336C179.384 239.56 180.352 238.376 180.816 237.384L181.2 238.072C180.656 239.064 179.728 240.152 178.52 240.912C177.712 241.416 176.704 241.912 175.368 242.16L174.952 241.504ZM184.424 241.296C184.424 240.848 184.424 237.312 184.424 236.648C184.424 236.416 184.408 236.064 184.368 235.808H185.152C185.12 236.056 185.096 236.4 185.096 236.648C185.096 237.888 185.104 240.92 185.104 241.296C185.104 241.552 185.12 241.984 185.152 242.248H184.376C184.416 241.992 184.424 241.592 184.424 241.296ZM184.952 237.912C186.008 238.216 187.624 238.832 188.512 239.264L188.232 239.944C187.32 239.456 185.824 238.888 184.952 238.616V237.912Z" fill="black"/>
<path d="M21.3828 285.319C21.3639 285.151 21.2857 285.021 21.1484 284.928C21.0111 284.835 20.8383 284.788 20.63 284.788C20.4808 284.788 20.3518 284.812 20.2429 284.859C20.134 284.905 20.0494 284.969 19.989 285.051C19.9298 285.131 19.9002 285.223 19.9002 285.326C19.9002 285.412 19.9203 285.487 19.9606 285.55C20.002 285.612 20.0559 285.665 20.1222 285.708C20.1896 285.749 20.2618 285.784 20.3388 285.812C20.4157 285.84 20.4897 285.862 20.5607 285.88L20.9158 285.972C21.0318 286.001 21.1508 286.039 21.2727 286.088C21.3946 286.136 21.5077 286.2 21.6119 286.279C21.716 286.359 21.8001 286.457 21.864 286.574C21.9291 286.691 21.9616 286.832 21.9616 286.995C21.9616 287.201 21.9084 287.384 21.8018 287.544C21.6965 287.703 21.5432 287.83 21.342 287.922C21.1419 288.014 20.8999 288.06 20.6158 288.06C20.3435 288.06 20.108 288.017 19.9091 287.931C19.7102 287.844 19.5546 287.722 19.4421 287.563C19.3297 287.403 19.2675 287.214 19.2557 286.995H19.8061C19.8168 287.126 19.8594 287.236 19.9339 287.324C20.0097 287.41 20.1062 287.474 20.2234 287.517C20.3417 287.558 20.4714 287.579 20.6122 287.579C20.7673 287.579 20.9052 287.555 21.0259 287.506C21.1478 287.457 21.2437 287.388 21.3136 287.3C21.3834 287.212 21.4183 287.108 21.4183 286.99C21.4183 286.882 21.3875 286.794 21.326 286.725C21.2656 286.656 21.1834 286.6 21.0792 286.555C20.9762 286.51 20.8596 286.47 20.7294 286.436L20.2997 286.319C20.0085 286.239 19.7777 286.123 19.6072 285.969C19.438 285.815 19.3533 285.611 19.3533 285.358C19.3533 285.148 19.4102 284.966 19.5238 284.809C19.6374 284.653 19.7913 284.532 19.9854 284.445C20.1796 284.358 20.3986 284.314 20.6424 284.314C20.8886 284.314 21.1058 284.357 21.294 284.444C21.4834 284.53 21.6326 284.649 21.7415 284.8C21.8504 284.951 21.9072 285.124 21.9119 285.319H21.3828ZM23.6685 288.055C23.4128 288.055 23.1896 287.996 22.9991 287.879C22.8085 287.762 22.6605 287.598 22.5552 287.387C22.4498 287.177 22.3971 286.931 22.3971 286.649C22.3971 286.366 22.4498 286.118 22.5552 285.907C22.6605 285.695 22.8085 285.53 22.9991 285.413C23.1896 285.296 23.4128 285.237 23.6685 285.237C23.9241 285.237 24.1473 285.296 24.3378 285.413C24.5284 285.53 24.6764 285.695 24.7817 285.907C24.8871 286.118 24.9398 286.366 24.9398 286.649C24.9398 286.931 24.8871 287.177 24.7817 287.387C24.6764 287.598 24.5284 287.762 24.3378 287.879C24.1473 287.996 23.9241 288.055 23.6685 288.055ZM23.6702 287.609C23.836 287.609 23.9733 287.566 24.0822 287.478C24.1911 287.39 24.2716 287.274 24.3236 287.128C24.3769 286.983 24.4035 286.822 24.4035 286.647C24.4035 286.473 24.3769 286.313 24.3236 286.168C24.2716 286.021 24.1911 285.903 24.0822 285.814C23.9733 285.725 23.836 285.681 23.6702 285.681C23.5033 285.681 23.3648 285.725 23.2547 285.814C23.1458 285.903 23.0648 286.021 23.0115 286.168C22.9594 286.313 22.9334 286.473 22.9334 286.647C22.9334 286.822 22.9594 286.983 23.0115 287.128C23.0648 287.274 23.1458 287.39 23.2547 287.478C23.3648 287.566 23.5033 287.609 23.6702 287.609ZM27.205 286.869V285.273H27.7377V288H27.2156V287.528H27.1872C27.1245 287.673 27.0239 287.795 26.8854 287.892C26.7481 287.988 26.577 288.036 26.3722 288.036C26.1971 288.036 26.042 287.997 25.907 287.92C25.7733 287.842 25.6679 287.727 25.591 287.574C25.5152 287.421 25.4774 287.232 25.4774 287.007V285.273H26.0083V286.944C26.0083 287.129 26.0597 287.277 26.1627 287.387C26.2657 287.498 26.3995 287.553 26.564 287.553C26.6634 287.553 26.7623 287.528 26.8605 287.478C26.96 287.428 27.0422 287.353 27.1073 287.252C27.1736 287.152 27.2062 287.024 27.205 286.869ZM28.396 288V285.273H28.9091V285.706H28.9375C28.9873 285.559 29.0748 285.444 29.2003 285.36C29.327 285.275 29.4702 285.232 29.63 285.232C29.6632 285.232 29.7022 285.233 29.7472 285.235C29.7934 285.238 29.8295 285.241 29.8555 285.244V285.752C29.8342 285.746 29.7963 285.74 29.7419 285.733C29.6874 285.724 29.633 285.72 29.5785 285.72C29.453 285.72 29.3412 285.747 29.2429 285.8C29.1459 285.852 29.0689 285.925 29.0121 286.018C28.9553 286.111 28.9269 286.216 28.9269 286.335V288H28.396ZM31.3111 288.055C31.0471 288.055 30.8198 287.995 30.6293 287.876C30.4399 287.755 30.2943 287.589 30.1925 287.377C30.0907 287.165 30.0398 286.922 30.0398 286.649C30.0398 286.372 30.0918 286.127 30.196 285.915C30.3002 285.702 30.447 285.536 30.6364 285.417C30.8258 285.297 31.0489 285.237 31.3057 285.237C31.5129 285.237 31.6976 285.276 31.8597 285.353C32.0219 285.428 32.1527 285.535 32.2521 285.672C32.3527 285.81 32.4125 285.97 32.4315 286.153H31.9148C31.8864 286.026 31.8213 285.915 31.7195 285.823C31.6188 285.731 31.4839 285.685 31.3146 285.685C31.1667 285.685 31.037 285.724 30.9258 285.802C30.8157 285.879 30.7299 285.989 30.6683 286.132C30.6068 286.274 30.576 286.442 30.576 286.636C30.576 286.835 30.6062 287.007 30.6665 287.151C30.7269 287.296 30.8121 287.408 30.9222 287.487C31.0335 287.566 31.1643 287.606 31.3146 287.606C31.4152 287.606 31.5064 287.587 31.5881 287.551C31.6709 287.513 31.7402 287.459 31.7958 287.389C31.8526 287.319 31.8923 287.235 31.9148 287.137H32.4315C32.4125 287.313 32.3551 287.471 32.2592 287.609C32.1633 287.748 32.0349 287.857 31.8739 287.936C31.7141 288.015 31.5265 288.055 31.3111 288.055ZM34.1196 288.055C33.8509 288.055 33.6195 287.998 33.4254 287.883C33.2324 287.767 33.0833 287.604 32.9779 287.395C32.8738 287.184 32.8217 286.937 32.8217 286.654C32.8217 286.375 32.8738 286.129 32.9779 285.915C33.0833 285.702 33.2301 285.536 33.4183 285.417C33.6077 285.297 33.829 285.237 34.0823 285.237C34.2362 285.237 34.3854 285.263 34.5298 285.314C34.6742 285.364 34.8038 285.444 34.9186 285.553C35.0334 285.662 35.124 285.804 35.1903 285.978C35.2566 286.15 35.2897 286.361 35.2897 286.608V286.796H33.1218V286.398H34.7695C34.7695 286.259 34.7411 286.135 34.6843 286.027C34.6274 285.918 34.5475 285.833 34.4445 285.77C34.3428 285.707 34.2232 285.676 34.0859 285.676C33.9367 285.676 33.8065 285.712 33.6953 285.786C33.5852 285.858 33.4999 285.953 33.4396 286.07C33.3804 286.186 33.3508 286.312 33.3508 286.448V286.759C33.3508 286.941 33.3828 287.096 33.4467 287.224C33.5118 287.352 33.6023 287.45 33.7183 287.517C33.8343 287.583 33.9699 287.616 34.1249 287.616C34.2256 287.616 34.3173 287.602 34.4002 287.574C34.483 287.544 34.5546 287.5 34.615 287.442C34.6754 287.384 34.7215 287.313 34.7535 287.228L35.256 287.318C35.2157 287.466 35.1435 287.596 35.0394 287.707C34.9364 287.817 34.8068 287.903 34.6505 287.964C34.4954 288.025 34.3185 288.055 34.1196 288.055ZM37.4418 287.549C37.3447 287.549 37.2613 287.515 37.1914 287.446C37.1216 287.376 37.0867 287.292 37.0867 287.194C37.0867 287.097 37.1216 287.014 37.1914 286.945C37.2613 286.875 37.3447 286.841 37.4418 286.841C37.5389 286.841 37.6223 286.875 37.6921 286.945C37.762 287.014 37.7969 287.097 37.7969 287.194C37.7969 287.259 37.7803 287.319 37.7472 287.373C37.7152 287.426 37.6726 287.469 37.6193 287.501C37.5661 287.533 37.5069 287.549 37.4418 287.549ZM37.4418 285.727C37.3447 285.727 37.2613 285.693 37.1914 285.624C37.1216 285.554 37.0867 285.47 37.0867 285.372C37.0867 285.275 37.1216 285.192 37.1914 285.124C37.2613 285.054 37.3447 285.019 37.4418 285.019C37.5389 285.019 37.6223 285.054 37.6921 285.124C37.762 285.192 37.7969 285.275 37.7969 285.372C37.7969 285.437 37.7803 285.497 37.7472 285.551C37.7152 285.605 37.6726 285.647 37.6193 285.679C37.5661 285.711 37.5069 285.727 37.4418 285.727ZM40.1456 284.364L41.0157 285.786H41.0441L41.9141 284.364H42.5497L41.4169 286.182L42.5568 288H41.9176L41.0441 286.597H41.0157L40.1421 288H39.5029L40.6623 286.182L39.51 284.364H40.1456ZM43.4207 284.364L44.2907 285.786H44.3191L45.1892 284.364H45.8248L44.692 286.182L45.8319 288H45.1927L44.3191 286.597H44.2907L43.4172 288H42.7779L43.9374 286.182L42.7851 284.364H43.4207ZM46.6958 284.364L47.5658 285.786H47.5942L48.4642 284.364H49.0999L47.9671 286.182L49.107 288H48.4678L47.5942 286.597H47.5658L46.6922 288H46.053L47.2125 286.182L46.0601 284.364H46.6958Z" fill="black"/>
<path d="M532.963 290.432V285.182H533.689V285.801H533.751C533.794 285.721 533.857 285.629 533.938 285.525C534.019 285.42 534.132 285.329 534.276 285.251C534.42 285.172 534.611 285.132 534.848 285.132C535.156 285.132 535.431 285.21 535.673 285.366C535.915 285.522 536.105 285.746 536.242 286.039C536.381 286.333 536.451 286.686 536.451 287.098C536.451 287.511 536.382 287.865 536.245 288.16C536.107 288.453 535.918 288.679 535.678 288.838C535.438 288.996 535.163 289.075 534.855 289.075C534.623 289.075 534.433 289.036 534.286 288.958C534.14 288.88 534.026 288.789 533.943 288.684C533.86 288.58 533.796 288.487 533.751 288.406H533.707V290.432H532.963ZM533.692 287.091C533.692 287.359 533.731 287.595 533.809 287.797C533.886 287.999 533.999 288.157 534.147 288.272C534.294 288.384 534.475 288.441 534.689 288.441C534.911 288.441 535.096 288.382 535.245 288.264C535.394 288.145 535.507 287.983 535.583 287.779C535.661 287.576 535.7 287.346 535.7 287.091C535.7 286.839 535.662 286.613 535.586 286.412C535.511 286.212 535.399 286.054 535.248 285.938C535.099 285.821 534.912 285.763 534.689 285.763C534.473 285.763 534.291 285.819 534.142 285.93C533.994 286.041 533.882 286.196 533.806 286.395C533.73 286.594 533.692 286.826 533.692 287.091ZM537.696 289.047C537.56 289.047 537.444 288.999 537.346 288.903C537.248 288.805 537.199 288.688 537.199 288.55C537.199 288.414 537.248 288.298 537.346 288.202C537.444 288.104 537.56 288.055 537.696 288.055C537.832 288.055 537.949 288.104 538.047 288.202C538.145 288.298 538.194 288.414 538.194 288.55C538.194 288.641 538.17 288.725 538.124 288.801C538.079 288.876 538.02 288.935 537.945 288.98C537.87 289.025 537.788 289.047 537.696 289.047ZM539.144 289L541.366 284.605V284.568H538.796V283.909H542.162V284.59L539.947 289H539.144Z" fill="black"/>
<rect x="109.25" y="63.25" width="105.5" height="182.5" stroke="#4F4F50" stroke-width="0.5" stroke-dasharray="2 2"/>
<line x1="21" y1="20.75" x2="540" y2="20.75" stroke="black" stroke-width="0.5"/>
</svg>
