<svg width="1599" height="899" viewBox="0 0 1599 899" fill="none" xmlns="http://www.w3.org/2000/svg">
<rect width="1599" height="899" fill="white"/>
<path d="M193.582 264V237.818H198.325V249.848H198.645L208.859 237.818H214.651L204.526 249.567L214.74 264H209.038L201.227 252.776L198.325 256.202V264H193.582ZM224.993 264.384C223.024 264.384 221.324 263.974 219.892 263.156C218.469 262.33 217.374 261.162 216.607 259.653C215.839 258.136 215.456 256.351 215.456 254.297C215.456 252.277 215.839 250.504 216.607 248.979C217.382 247.445 218.464 246.251 219.854 245.399C221.243 244.538 222.875 244.108 224.75 244.108C225.96 244.108 227.102 244.304 228.176 244.696C229.259 245.08 230.213 245.676 231.04 246.486C231.875 247.295 232.531 248.327 233.009 249.58C233.486 250.824 233.724 252.307 233.724 254.028V255.447H217.629V252.328H229.288C229.28 251.442 229.088 250.653 228.713 249.963C228.338 249.264 227.814 248.714 227.141 248.314C226.476 247.913 225.7 247.713 224.814 247.713C223.868 247.713 223.037 247.943 222.321 248.403C221.605 248.855 221.047 249.452 220.646 250.193C220.254 250.926 220.054 251.732 220.045 252.609V255.332C220.045 256.474 220.254 257.455 220.672 258.273C221.089 259.082 221.673 259.705 222.423 260.139C223.173 260.565 224.051 260.778 225.057 260.778C225.73 260.778 226.339 260.685 226.885 260.497C227.43 260.301 227.903 260.016 228.304 259.641C228.705 259.266 229.007 258.801 229.212 258.247L233.533 258.733C233.26 259.875 232.74 260.872 231.973 261.724C231.214 262.568 230.243 263.224 229.058 263.693C227.874 264.153 226.518 264.384 224.993 264.384ZM239.953 271.364C239.323 271.364 238.739 271.313 238.202 271.21C237.674 271.116 237.252 271.006 236.936 270.878L238.01 267.273C238.684 267.469 239.284 267.563 239.813 267.554C240.341 267.545 240.806 267.379 241.206 267.055C241.615 266.74 241.961 266.212 242.242 265.47L242.638 264.409L235.517 244.364H240.426L244.952 259.193H245.157L249.695 244.364H254.617L246.755 266.378C246.388 267.418 245.902 268.308 245.297 269.05C244.692 269.8 243.951 270.371 243.073 270.763C242.203 271.163 241.164 271.364 239.953 271.364ZM282.269 249.554L278.05 250.014C277.931 249.588 277.722 249.188 277.424 248.812C277.134 248.438 276.742 248.135 276.248 247.905C275.753 247.675 275.148 247.56 274.432 247.56C273.469 247.56 272.659 247.768 272.003 248.186C271.355 248.604 271.036 249.145 271.044 249.81C271.036 250.381 271.245 250.845 271.671 251.203C272.105 251.561 272.821 251.855 273.819 252.085L277.168 252.801C279.026 253.202 280.407 253.837 281.31 254.706C282.222 255.575 282.682 256.713 282.691 258.119C282.682 259.355 282.32 260.446 281.604 261.392C280.897 262.33 279.912 263.062 278.651 263.591C277.39 264.119 275.941 264.384 274.304 264.384C271.901 264.384 269.966 263.881 268.5 262.875C267.034 261.861 266.161 260.45 265.88 258.643L270.392 258.209C270.597 259.095 271.032 259.764 271.696 260.216C272.361 260.668 273.226 260.893 274.292 260.893C275.391 260.893 276.273 260.668 276.938 260.216C277.611 259.764 277.948 259.206 277.948 258.541C277.948 257.979 277.73 257.514 277.296 257.148C276.87 256.781 276.205 256.5 275.301 256.304L271.952 255.601C270.069 255.209 268.675 254.548 267.772 253.619C266.868 252.682 266.421 251.497 266.429 250.065C266.421 248.855 266.749 247.807 267.414 246.92C268.087 246.026 269.02 245.335 270.213 244.849C271.415 244.355 272.8 244.108 274.368 244.108C276.669 244.108 278.48 244.598 279.801 245.578C281.131 246.558 281.953 247.884 282.269 249.554ZM299.022 255.741V244.364H303.65V264H299.163V260.51H298.958C298.515 261.609 297.787 262.509 296.772 263.207C295.767 263.906 294.527 264.256 293.052 264.256C291.765 264.256 290.627 263.97 289.639 263.399C288.659 262.82 287.892 261.98 287.338 260.881C286.784 259.773 286.507 258.435 286.507 256.866V244.364H291.135V256.151C291.135 257.395 291.475 258.384 292.157 259.116C292.839 259.849 293.734 260.216 294.842 260.216C295.524 260.216 296.184 260.05 296.824 259.717C297.463 259.385 297.987 258.891 298.396 258.234C298.814 257.57 299.022 256.739 299.022 255.741ZM308.614 264V237.818H313.241V247.611H313.433C313.672 247.134 314.009 246.626 314.443 246.089C314.878 245.544 315.466 245.08 316.207 244.696C316.949 244.304 317.895 244.108 319.045 244.108C320.563 244.108 321.93 244.496 323.149 245.271C324.376 246.038 325.348 247.176 326.064 248.685C326.788 250.185 327.151 252.026 327.151 254.207C327.151 256.364 326.797 258.196 326.089 259.705C325.382 261.213 324.419 262.364 323.2 263.156C321.982 263.949 320.601 264.345 319.058 264.345C317.933 264.345 317 264.158 316.259 263.783C315.517 263.408 314.92 262.956 314.469 262.428C314.026 261.891 313.68 261.384 313.433 260.906H313.165V264H308.614ZM313.152 254.182C313.152 255.452 313.331 256.564 313.689 257.518C314.055 258.473 314.58 259.219 315.261 259.756C315.952 260.284 316.787 260.548 317.767 260.548C318.79 260.548 319.646 260.276 320.337 259.73C321.027 259.176 321.547 258.422 321.896 257.467C322.254 256.504 322.433 255.409 322.433 254.182C322.433 252.963 322.259 251.881 321.909 250.935C321.56 249.989 321.04 249.247 320.349 248.71C319.659 248.173 318.798 247.905 317.767 247.905C316.778 247.905 315.939 248.165 315.249 248.685C314.558 249.205 314.034 249.933 313.676 250.871C313.327 251.808 313.152 252.912 313.152 254.182ZM355.534 249.554L351.316 250.014C351.196 249.588 350.988 249.188 350.689 248.812C350.4 248.438 350.007 248.135 349.513 247.905C349.019 247.675 348.414 247.56 347.698 247.56C346.735 247.56 345.925 247.768 345.269 248.186C344.621 248.604 344.301 249.145 344.31 249.81C344.301 250.381 344.51 250.845 344.936 251.203C345.371 251.561 346.087 251.855 347.084 252.085L350.434 252.801C352.292 253.202 353.672 253.837 354.576 254.706C355.488 255.575 355.948 256.713 355.956 258.119C355.948 259.355 355.586 260.446 354.87 261.392C354.162 262.33 353.178 263.062 351.917 263.591C350.655 264.119 349.206 264.384 347.57 264.384C345.167 264.384 343.232 263.881 341.766 262.875C340.3 261.861 339.426 260.45 339.145 258.643L343.658 258.209C343.863 259.095 344.297 259.764 344.962 260.216C345.627 260.668 346.492 260.893 347.557 260.893C348.657 260.893 349.539 260.668 350.203 260.216C350.877 259.764 351.213 259.206 351.213 258.541C351.213 257.979 350.996 257.514 350.561 257.148C350.135 256.781 349.471 256.5 348.567 256.304L345.218 255.601C343.334 255.209 341.941 254.548 341.037 253.619C340.134 252.682 339.686 251.497 339.695 250.065C339.686 248.855 340.015 247.807 340.679 246.92C341.353 246.026 342.286 245.335 343.479 244.849C344.681 244.355 346.066 244.108 347.634 244.108C349.935 244.108 351.746 244.598 353.067 245.578C354.397 246.558 355.219 247.884 355.534 249.554ZM368.466 264.384C366.497 264.384 364.797 263.974 363.365 263.156C361.941 262.33 360.846 261.162 360.079 259.653C359.312 258.136 358.929 256.351 358.929 254.297C358.929 252.277 359.312 250.504 360.079 248.979C360.855 247.445 361.937 246.251 363.326 245.399C364.716 244.538 366.348 244.108 368.223 244.108C369.433 244.108 370.575 244.304 371.649 244.696C372.731 245.08 373.686 245.676 374.512 246.486C375.348 247.295 376.004 248.327 376.481 249.58C376.958 250.824 377.197 252.307 377.197 254.028V255.447H361.102V252.328H372.761C372.752 251.442 372.561 250.653 372.186 249.963C371.811 249.264 371.287 248.714 370.613 248.314C369.949 247.913 369.173 247.713 368.287 247.713C367.341 247.713 366.51 247.943 365.794 248.403C365.078 248.855 364.52 249.452 364.119 250.193C363.727 250.926 363.527 251.732 363.518 252.609V255.332C363.518 256.474 363.727 257.455 364.145 258.273C364.562 259.082 365.146 259.705 365.896 260.139C366.646 260.565 367.524 260.778 368.529 260.778C369.203 260.778 369.812 260.685 370.358 260.497C370.903 260.301 371.376 260.016 371.777 259.641C372.177 259.266 372.48 258.801 372.684 258.247L377.005 258.733C376.733 259.875 376.213 260.872 375.446 261.724C374.687 262.568 373.716 263.224 372.531 263.693C371.346 264.153 369.991 264.384 368.466 264.384ZM389.652 271.773C387.99 271.773 386.563 271.547 385.369 271.095C384.176 270.652 383.217 270.055 382.493 269.305C381.768 268.555 381.266 267.724 380.984 266.812L385.152 265.803C385.339 266.186 385.612 266.565 385.97 266.94C386.328 267.324 386.81 267.639 387.415 267.886C388.028 268.142 388.8 268.27 389.729 268.27C391.041 268.27 392.128 267.95 392.989 267.311C393.849 266.68 394.28 265.641 394.28 264.192V260.472H394.05C393.811 260.949 393.462 261.439 393.001 261.942C392.55 262.445 391.949 262.866 391.199 263.207C390.457 263.548 389.524 263.719 388.399 263.719C386.891 263.719 385.523 263.365 384.295 262.658C383.077 261.942 382.105 260.876 381.381 259.462C380.665 258.038 380.307 256.257 380.307 254.118C380.307 251.962 380.665 250.142 381.381 248.659C382.105 247.168 383.081 246.038 384.308 245.271C385.536 244.496 386.903 244.108 388.412 244.108C389.563 244.108 390.509 244.304 391.25 244.696C392 245.08 392.597 245.544 393.04 246.089C393.483 246.626 393.82 247.134 394.05 247.611H394.305V244.364H398.869V264.32C398.869 265.999 398.469 267.388 397.668 268.487C396.866 269.587 395.771 270.409 394.382 270.955C392.993 271.5 391.416 271.773 389.652 271.773ZM389.69 260.088C390.67 260.088 391.506 259.849 392.196 259.372C392.886 258.895 393.411 258.209 393.768 257.314C394.126 256.419 394.305 255.345 394.305 254.092C394.305 252.857 394.126 251.774 393.768 250.845C393.419 249.916 392.899 249.196 392.209 248.685C391.527 248.165 390.688 247.905 389.69 247.905C388.659 247.905 387.798 248.173 387.108 248.71C386.418 249.247 385.898 249.984 385.548 250.922C385.199 251.851 385.024 252.908 385.024 254.092C385.024 255.294 385.199 256.347 385.548 257.25C385.906 258.145 386.43 258.844 387.121 259.347C387.82 259.841 388.676 260.088 389.69 260.088ZM403.612 264V244.364H408.036V247.7H408.266C408.675 246.575 409.352 245.697 410.298 245.067C411.244 244.428 412.374 244.108 413.686 244.108C415.016 244.108 416.136 244.432 417.048 245.08C417.969 245.719 418.616 246.592 418.991 247.7H419.196C419.631 246.609 420.364 245.74 421.395 245.092C422.435 244.436 423.666 244.108 425.089 244.108C426.896 244.108 428.371 244.679 429.513 245.821C430.655 246.963 431.226 248.629 431.226 250.82V264H426.585V251.536C426.585 250.317 426.261 249.426 425.614 248.864C424.966 248.293 424.173 248.007 423.236 248.007C422.119 248.007 421.246 248.357 420.615 249.055C419.993 249.746 419.682 250.645 419.682 251.753V264H415.143V251.344C415.143 250.33 414.837 249.52 414.223 248.915C413.618 248.31 412.825 248.007 411.845 248.007C411.18 248.007 410.575 248.178 410.03 248.518C409.484 248.851 409.05 249.324 408.726 249.938C408.402 250.543 408.24 251.25 408.24 252.06V264H403.612ZM444.614 264.384C442.645 264.384 440.945 263.974 439.513 263.156C438.09 262.33 436.995 261.162 436.228 259.653C435.461 258.136 435.077 256.351 435.077 254.297C435.077 252.277 435.461 250.504 436.228 248.979C437.003 247.445 438.086 246.251 439.475 245.399C440.864 244.538 442.496 244.108 444.371 244.108C445.581 244.108 446.723 244.304 447.797 244.696C448.88 245.08 449.834 245.676 450.661 246.486C451.496 247.295 452.152 248.327 452.63 249.58C453.107 250.824 453.346 252.307 453.346 254.028V255.447H437.25V252.328H448.909C448.901 251.442 448.709 250.653 448.334 249.963C447.959 249.264 447.435 248.714 446.762 248.314C446.097 247.913 445.321 247.713 444.435 247.713C443.489 247.713 442.658 247.943 441.942 248.403C441.226 248.855 440.668 249.452 440.267 250.193C439.875 250.926 439.675 251.732 439.667 252.609V255.332C439.667 256.474 439.875 257.455 440.293 258.273C440.711 259.082 441.294 259.705 442.044 260.139C442.794 260.565 443.672 260.778 444.678 260.778C445.351 260.778 445.961 260.685 446.506 260.497C447.051 260.301 447.525 260.016 447.925 259.641C448.326 259.266 448.628 258.801 448.833 258.247L453.154 258.733C452.881 259.875 452.361 260.872 451.594 261.724C450.836 262.568 449.864 263.224 448.679 263.693C447.495 264.153 446.14 264.384 444.614 264.384ZM461.888 252.494V264H457.261V244.364H461.684V247.7H461.914C462.366 246.601 463.086 245.727 464.075 245.08C465.072 244.432 466.303 244.108 467.769 244.108C469.124 244.108 470.305 244.398 471.31 244.977C472.325 245.557 473.109 246.396 473.663 247.496C474.225 248.595 474.502 249.929 474.494 251.497V264H469.866V252.213C469.866 250.901 469.525 249.874 468.843 249.132C468.17 248.391 467.237 248.02 466.043 248.02C465.234 248.02 464.513 248.199 463.883 248.557C463.261 248.906 462.771 249.413 462.413 250.078C462.063 250.743 461.888 251.548 461.888 252.494ZM489.004 244.364V247.943H477.715V244.364H489.004ZM480.502 239.659H485.13V258.094C485.13 258.716 485.224 259.193 485.411 259.526C485.607 259.849 485.863 260.071 486.178 260.19C486.494 260.31 486.843 260.369 487.227 260.369C487.516 260.369 487.781 260.348 488.019 260.305C488.266 260.263 488.454 260.224 488.582 260.19L489.362 263.808C489.114 263.893 488.761 263.987 488.3 264.089C487.849 264.192 487.295 264.251 486.638 264.268C485.479 264.303 484.435 264.128 483.506 263.744C482.577 263.352 481.84 262.747 481.295 261.929C480.758 261.111 480.494 260.088 480.502 258.861V239.659ZM512.402 237.818V264H507.659V242.433H507.505L501.382 246.345V241.999L507.889 237.818H512.402Z" fill="#9747FF"/>
<ellipse cx="114" cy="250.708" rx="37" ry="38.7077" fill="#D9B8FF"/>
<ellipse cx="77.5" cy="226" rx="13.5" ry="14" fill="#9747FF"/>
<path d="M79.0337 222.818V233H77.4925V224.359H77.4329L74.9968 225.95V224.479L77.5373 222.818H79.0337Z" fill="white"/>
<path d="M193.582 489V462.818H198.325V474.848H198.645L208.859 462.818H214.651L204.526 474.567L214.74 489H209.038L201.227 477.776L198.325 481.202V489H193.582ZM224.993 489.384C223.024 489.384 221.324 488.974 219.892 488.156C218.469 487.33 217.374 486.162 216.607 484.653C215.839 483.136 215.456 481.351 215.456 479.297C215.456 477.277 215.839 475.504 216.607 473.979C217.382 472.445 218.464 471.251 219.854 470.399C221.243 469.538 222.875 469.108 224.75 469.108C225.96 469.108 227.102 469.304 228.176 469.696C229.259 470.08 230.213 470.676 231.04 471.486C231.875 472.295 232.531 473.327 233.009 474.58C233.486 475.824 233.724 477.307 233.724 479.028V480.447H217.629V477.328H229.288C229.28 476.442 229.088 475.653 228.713 474.963C228.338 474.264 227.814 473.714 227.141 473.314C226.476 472.913 225.7 472.713 224.814 472.713C223.868 472.713 223.037 472.943 222.321 473.403C221.605 473.855 221.047 474.452 220.646 475.193C220.254 475.926 220.054 476.732 220.045 477.609V480.332C220.045 481.474 220.254 482.455 220.672 483.273C221.089 484.082 221.673 484.705 222.423 485.139C223.173 485.565 224.051 485.778 225.057 485.778C225.73 485.778 226.339 485.685 226.885 485.497C227.43 485.301 227.903 485.016 228.304 484.641C228.705 484.266 229.007 483.801 229.212 483.247L233.533 483.733C233.26 484.875 232.74 485.872 231.973 486.724C231.214 487.568 230.243 488.224 229.058 488.693C227.874 489.153 226.518 489.384 224.993 489.384ZM239.953 496.364C239.323 496.364 238.739 496.313 238.202 496.21C237.674 496.116 237.252 496.006 236.936 495.878L238.01 492.273C238.684 492.469 239.284 492.563 239.813 492.554C240.341 492.545 240.806 492.379 241.206 492.055C241.615 491.74 241.961 491.212 242.242 490.47L242.638 489.409L235.517 469.364H240.426L244.952 484.193H245.157L249.695 469.364H254.617L246.755 491.378C246.388 492.418 245.902 493.308 245.297 494.05C244.692 494.8 243.951 495.371 243.073 495.763C242.203 496.163 241.164 496.364 239.953 496.364ZM282.269 474.554L278.05 475.014C277.931 474.588 277.722 474.188 277.424 473.812C277.134 473.438 276.742 473.135 276.248 472.905C275.753 472.675 275.148 472.56 274.432 472.56C273.469 472.56 272.659 472.768 272.003 473.186C271.355 473.604 271.036 474.145 271.044 474.81C271.036 475.381 271.245 475.845 271.671 476.203C272.105 476.561 272.821 476.855 273.819 477.085L277.168 477.801C279.026 478.202 280.407 478.837 281.31 479.706C282.222 480.575 282.682 481.713 282.691 483.119C282.682 484.355 282.32 485.446 281.604 486.392C280.897 487.33 279.912 488.062 278.651 488.591C277.39 489.119 275.941 489.384 274.304 489.384C271.901 489.384 269.966 488.881 268.5 487.875C267.034 486.861 266.161 485.45 265.88 483.643L270.392 483.209C270.597 484.095 271.032 484.764 271.696 485.216C272.361 485.668 273.226 485.893 274.292 485.893C275.391 485.893 276.273 485.668 276.938 485.216C277.611 484.764 277.948 484.206 277.948 483.541C277.948 482.979 277.73 482.514 277.296 482.148C276.87 481.781 276.205 481.5 275.301 481.304L271.952 480.601C270.069 480.209 268.675 479.548 267.772 478.619C266.868 477.682 266.421 476.497 266.429 475.065C266.421 473.855 266.749 472.807 267.414 471.92C268.087 471.026 269.02 470.335 270.213 469.849C271.415 469.355 272.8 469.108 274.368 469.108C276.669 469.108 278.48 469.598 279.801 470.578C281.131 471.558 281.953 472.884 282.269 474.554ZM299.022 480.741V469.364H303.65V489H299.163V485.51H298.958C298.515 486.609 297.787 487.509 296.772 488.207C295.767 488.906 294.527 489.256 293.052 489.256C291.765 489.256 290.627 488.97 289.639 488.399C288.659 487.82 287.892 486.98 287.338 485.881C286.784 484.773 286.507 483.435 286.507 481.866V469.364H291.135V481.151C291.135 482.395 291.475 483.384 292.157 484.116C292.839 484.849 293.734 485.216 294.842 485.216C295.524 485.216 296.184 485.05 296.824 484.717C297.463 484.385 297.987 483.891 298.396 483.234C298.814 482.57 299.022 481.739 299.022 480.741ZM308.614 489V462.818H313.241V472.611H313.433C313.672 472.134 314.009 471.626 314.443 471.089C314.878 470.544 315.466 470.08 316.207 469.696C316.949 469.304 317.895 469.108 319.045 469.108C320.563 469.108 321.93 469.496 323.149 470.271C324.376 471.038 325.348 472.176 326.064 473.685C326.788 475.185 327.151 477.026 327.151 479.207C327.151 481.364 326.797 483.196 326.089 484.705C325.382 486.213 324.419 487.364 323.2 488.156C321.982 488.949 320.601 489.345 319.058 489.345C317.933 489.345 317 489.158 316.259 488.783C315.517 488.408 314.92 487.956 314.469 487.428C314.026 486.891 313.68 486.384 313.433 485.906H313.165V489H308.614ZM313.152 479.182C313.152 480.452 313.331 481.564 313.689 482.518C314.055 483.473 314.58 484.219 315.261 484.756C315.952 485.284 316.787 485.548 317.767 485.548C318.79 485.548 319.646 485.276 320.337 484.73C321.027 484.176 321.547 483.422 321.896 482.467C322.254 481.504 322.433 480.409 322.433 479.182C322.433 477.963 322.259 476.881 321.909 475.935C321.56 474.989 321.04 474.247 320.349 473.71C319.659 473.173 318.798 472.905 317.767 472.905C316.778 472.905 315.939 473.165 315.249 473.685C314.558 474.205 314.034 474.933 313.676 475.871C313.327 476.808 313.152 477.912 313.152 479.182ZM355.534 474.554L351.316 475.014C351.196 474.588 350.988 474.188 350.689 473.812C350.4 473.438 350.007 473.135 349.513 472.905C349.019 472.675 348.414 472.56 347.698 472.56C346.735 472.56 345.925 472.768 345.269 473.186C344.621 473.604 344.301 474.145 344.31 474.81C344.301 475.381 344.51 475.845 344.936 476.203C345.371 476.561 346.087 476.855 347.084 477.085L350.434 477.801C352.292 478.202 353.672 478.837 354.576 479.706C355.488 480.575 355.948 481.713 355.956 483.119C355.948 484.355 355.586 485.446 354.87 486.392C354.162 487.33 353.178 488.062 351.917 488.591C350.655 489.119 349.206 489.384 347.57 489.384C345.167 489.384 343.232 488.881 341.766 487.875C340.3 486.861 339.426 485.45 339.145 483.643L343.658 483.209C343.863 484.095 344.297 484.764 344.962 485.216C345.627 485.668 346.492 485.893 347.557 485.893C348.657 485.893 349.539 485.668 350.203 485.216C350.877 484.764 351.213 484.206 351.213 483.541C351.213 482.979 350.996 482.514 350.561 482.148C350.135 481.781 349.471 481.5 348.567 481.304L345.218 480.601C343.334 480.209 341.941 479.548 341.037 478.619C340.134 477.682 339.686 476.497 339.695 475.065C339.686 473.855 340.015 472.807 340.679 471.92C341.353 471.026 342.286 470.335 343.479 469.849C344.681 469.355 346.066 469.108 347.634 469.108C349.935 469.108 351.746 469.598 353.067 470.578C354.397 471.558 355.219 472.884 355.534 474.554ZM368.466 489.384C366.497 489.384 364.797 488.974 363.365 488.156C361.941 487.33 360.846 486.162 360.079 484.653C359.312 483.136 358.929 481.351 358.929 479.297C358.929 477.277 359.312 475.504 360.079 473.979C360.855 472.445 361.937 471.251 363.326 470.399C364.716 469.538 366.348 469.108 368.223 469.108C369.433 469.108 370.575 469.304 371.649 469.696C372.731 470.08 373.686 470.676 374.512 471.486C375.348 472.295 376.004 473.327 376.481 474.58C376.958 475.824 377.197 477.307 377.197 479.028V480.447H361.102V477.328H372.761C372.752 476.442 372.561 475.653 372.186 474.963C371.811 474.264 371.287 473.714 370.613 473.314C369.949 472.913 369.173 472.713 368.287 472.713C367.341 472.713 366.51 472.943 365.794 473.403C365.078 473.855 364.52 474.452 364.119 475.193C363.727 475.926 363.527 476.732 363.518 477.609V480.332C363.518 481.474 363.727 482.455 364.145 483.273C364.562 484.082 365.146 484.705 365.896 485.139C366.646 485.565 367.524 485.778 368.529 485.778C369.203 485.778 369.812 485.685 370.358 485.497C370.903 485.301 371.376 485.016 371.777 484.641C372.177 484.266 372.48 483.801 372.684 483.247L377.005 483.733C376.733 484.875 376.213 485.872 375.446 486.724C374.687 487.568 373.716 488.224 372.531 488.693C371.346 489.153 369.991 489.384 368.466 489.384ZM389.652 496.773C387.99 496.773 386.563 496.547 385.369 496.095C384.176 495.652 383.217 495.055 382.493 494.305C381.768 493.555 381.266 492.724 380.984 491.812L385.152 490.803C385.339 491.186 385.612 491.565 385.97 491.94C386.328 492.324 386.81 492.639 387.415 492.886C388.028 493.142 388.8 493.27 389.729 493.27C391.041 493.27 392.128 492.95 392.989 492.311C393.849 491.68 394.28 490.641 394.28 489.192V485.472H394.05C393.811 485.949 393.462 486.439 393.001 486.942C392.55 487.445 391.949 487.866 391.199 488.207C390.457 488.548 389.524 488.719 388.399 488.719C386.891 488.719 385.523 488.365 384.295 487.658C383.077 486.942 382.105 485.876 381.381 484.462C380.665 483.038 380.307 481.257 380.307 479.118C380.307 476.962 380.665 475.142 381.381 473.659C382.105 472.168 383.081 471.038 384.308 470.271C385.536 469.496 386.903 469.108 388.412 469.108C389.563 469.108 390.509 469.304 391.25 469.696C392 470.08 392.597 470.544 393.04 471.089C393.483 471.626 393.82 472.134 394.05 472.611H394.305V469.364H398.869V489.32C398.869 490.999 398.469 492.388 397.668 493.487C396.866 494.587 395.771 495.409 394.382 495.955C392.993 496.5 391.416 496.773 389.652 496.773ZM389.69 485.088C390.67 485.088 391.506 484.849 392.196 484.372C392.886 483.895 393.411 483.209 393.768 482.314C394.126 481.419 394.305 480.345 394.305 479.092C394.305 477.857 394.126 476.774 393.768 475.845C393.419 474.916 392.899 474.196 392.209 473.685C391.527 473.165 390.688 472.905 389.69 472.905C388.659 472.905 387.798 473.173 387.108 473.71C386.418 474.247 385.898 474.984 385.548 475.922C385.199 476.851 385.024 477.908 385.024 479.092C385.024 480.294 385.199 481.347 385.548 482.25C385.906 483.145 386.43 483.844 387.121 484.347C387.82 484.841 388.676 485.088 389.69 485.088ZM403.612 489V469.364H408.036V472.7H408.266C408.675 471.575 409.352 470.697 410.298 470.067C411.244 469.428 412.374 469.108 413.686 469.108C415.016 469.108 416.136 469.432 417.048 470.08C417.969 470.719 418.616 471.592 418.991 472.7H419.196C419.631 471.609 420.364 470.74 421.395 470.092C422.435 469.436 423.666 469.108 425.089 469.108C426.896 469.108 428.371 469.679 429.513 470.821C430.655 471.963 431.226 473.629 431.226 475.82V489H426.585V476.536C426.585 475.317 426.261 474.426 425.614 473.864C424.966 473.293 424.173 473.007 423.236 473.007C422.119 473.007 421.246 473.357 420.615 474.055C419.993 474.746 419.682 475.645 419.682 476.753V489H415.143V476.344C415.143 475.33 414.837 474.52 414.223 473.915C413.618 473.31 412.825 473.007 411.845 473.007C411.18 473.007 410.575 473.178 410.03 473.518C409.484 473.851 409.05 474.324 408.726 474.938C408.402 475.543 408.24 476.25 408.24 477.06V489H403.612ZM444.614 489.384C442.645 489.384 440.945 488.974 439.513 488.156C438.09 487.33 436.995 486.162 436.228 484.653C435.461 483.136 435.077 481.351 435.077 479.297C435.077 477.277 435.461 475.504 436.228 473.979C437.003 472.445 438.086 471.251 439.475 470.399C440.864 469.538 442.496 469.108 444.371 469.108C445.581 469.108 446.723 469.304 447.797 469.696C448.88 470.08 449.834 470.676 450.661 471.486C451.496 472.295 452.152 473.327 452.63 474.58C453.107 475.824 453.346 477.307 453.346 479.028V480.447H437.25V477.328H448.909C448.901 476.442 448.709 475.653 448.334 474.963C447.959 474.264 447.435 473.714 446.762 473.314C446.097 472.913 445.321 472.713 444.435 472.713C443.489 472.713 442.658 472.943 441.942 473.403C441.226 473.855 440.668 474.452 440.267 475.193C439.875 475.926 439.675 476.732 439.667 477.609V480.332C439.667 481.474 439.875 482.455 440.293 483.273C440.711 484.082 441.294 484.705 442.044 485.139C442.794 485.565 443.672 485.778 444.678 485.778C445.351 485.778 445.961 485.685 446.506 485.497C447.051 485.301 447.525 485.016 447.925 484.641C448.326 484.266 448.628 483.801 448.833 483.247L453.154 483.733C452.881 484.875 452.361 485.872 451.594 486.724C450.836 487.568 449.864 488.224 448.679 488.693C447.495 489.153 446.14 489.384 444.614 489.384ZM461.888 477.494V489H457.261V469.364H461.684V472.7H461.914C462.366 471.601 463.086 470.727 464.075 470.08C465.072 469.432 466.303 469.108 467.769 469.108C469.124 469.108 470.305 469.398 471.31 469.977C472.325 470.557 473.109 471.396 473.663 472.496C474.225 473.595 474.502 474.929 474.494 476.497V489H469.866V477.213C469.866 475.901 469.525 474.874 468.843 474.132C468.17 473.391 467.237 473.02 466.043 473.02C465.234 473.02 464.513 473.199 463.883 473.557C463.261 473.906 462.771 474.413 462.413 475.078C462.063 475.743 461.888 476.548 461.888 477.494ZM489.004 469.364V472.943H477.715V469.364H489.004ZM480.502 464.659H485.13V483.094C485.13 483.716 485.224 484.193 485.411 484.526C485.607 484.849 485.863 485.071 486.178 485.19C486.494 485.31 486.843 485.369 487.227 485.369C487.516 485.369 487.781 485.348 488.019 485.305C488.266 485.263 488.454 485.224 488.582 485.19L489.362 488.808C489.114 488.893 488.761 488.987 488.3 489.089C487.849 489.192 487.295 489.251 486.638 489.268C485.479 489.303 484.435 489.128 483.506 488.744C482.577 488.352 481.84 487.747 481.295 486.929C480.758 486.111 480.494 485.088 480.502 483.861V464.659ZM501.752 489V485.574L510.842 476.663C511.711 475.786 512.436 475.006 513.015 474.324C513.595 473.642 514.029 472.982 514.319 472.342C514.609 471.703 514.754 471.021 514.754 470.297C514.754 469.47 514.566 468.763 514.191 468.175C513.816 467.578 513.301 467.118 512.645 466.794C511.988 466.47 511.243 466.308 510.407 466.308C509.547 466.308 508.792 466.487 508.145 466.845C507.497 467.195 506.994 467.693 506.636 468.341C506.287 468.989 506.112 469.76 506.112 470.655H501.599C501.599 468.993 501.978 467.548 502.737 466.321C503.495 465.094 504.539 464.143 505.869 463.47C507.207 462.797 508.741 462.46 510.471 462.46C512.227 462.46 513.77 462.788 515.099 463.445C516.429 464.101 517.46 465 518.193 466.142C518.934 467.284 519.305 468.588 519.305 470.054C519.305 471.034 519.118 471.997 518.743 472.943C518.368 473.889 517.707 474.937 516.761 476.088C515.824 477.239 514.507 478.632 512.811 480.268L508.298 484.858V485.037H519.701V489H501.752Z" fill="#9747FF"/>
<ellipse cx="114" cy="468.708" rx="37" ry="38.7077" fill="#D9B8FF"/>
<ellipse cx="77.5" cy="449" rx="13.5" ry="14" fill="#9747FF"/>
<path d="M74.1864 455.053V453.94L77.6317 450.37C77.9996 449.982 78.3029 449.642 78.5415 449.351C78.7835 449.056 78.9641 448.776 79.0835 448.511C79.2028 448.245 79.2624 447.964 79.2624 447.665C79.2624 447.327 79.1829 447.036 79.0238 446.79C78.8647 446.542 78.6476 446.351 78.3725 446.219C78.0974 446.083 77.7875 446.015 77.4428 446.015C77.0782 446.015 76.7601 446.089 76.4883 446.239C76.2165 446.388 76.0077 446.598 75.8619 446.87C75.716 447.142 75.6431 447.46 75.6431 447.825H74.1765C74.1765 447.205 74.319 446.663 74.604 446.199C74.8891 445.735 75.2802 445.375 75.7773 445.12C76.2745 444.861 76.8396 444.732 77.4727 444.732C78.1123 444.732 78.6758 444.86 79.163 445.115C79.6535 445.367 80.0363 445.712 80.3114 446.149C80.5865 446.583 80.7241 447.074 80.7241 447.621C80.7241 447.999 80.6528 448.368 80.5103 448.729C80.3711 449.091 80.1275 449.493 79.7795 449.937C79.4315 450.378 78.9476 450.914 78.3278 451.543L76.3043 453.661V453.736H80.8881V455.053H74.1864Z" fill="white"/>
<path d="M193.582 694V667.818H198.325V679.848H198.645L208.859 667.818H214.651L204.526 679.567L214.74 694H209.038L201.227 682.776L198.325 686.202V694H193.582ZM224.993 694.384C223.024 694.384 221.324 693.974 219.892 693.156C218.469 692.33 217.374 691.162 216.607 689.653C215.839 688.136 215.456 686.351 215.456 684.297C215.456 682.277 215.839 680.504 216.607 678.979C217.382 677.445 218.464 676.251 219.854 675.399C221.243 674.538 222.875 674.108 224.75 674.108C225.96 674.108 227.102 674.304 228.176 674.696C229.259 675.08 230.213 675.676 231.04 676.486C231.875 677.295 232.531 678.327 233.009 679.58C233.486 680.824 233.724 682.307 233.724 684.028V685.447H217.629V682.328H229.288C229.28 681.442 229.088 680.653 228.713 679.963C228.338 679.264 227.814 678.714 227.141 678.314C226.476 677.913 225.7 677.713 224.814 677.713C223.868 677.713 223.037 677.943 222.321 678.403C221.605 678.855 221.047 679.452 220.646 680.193C220.254 680.926 220.054 681.732 220.045 682.609V685.332C220.045 686.474 220.254 687.455 220.672 688.273C221.089 689.082 221.673 689.705 222.423 690.139C223.173 690.565 224.051 690.778 225.057 690.778C225.73 690.778 226.339 690.685 226.885 690.497C227.43 690.301 227.903 690.016 228.304 689.641C228.705 689.266 229.007 688.801 229.212 688.247L233.533 688.733C233.26 689.875 232.74 690.872 231.973 691.724C231.214 692.568 230.243 693.224 229.058 693.693C227.874 694.153 226.518 694.384 224.993 694.384ZM239.953 701.364C239.323 701.364 238.739 701.313 238.202 701.21C237.674 701.116 237.252 701.006 236.936 700.878L238.01 697.273C238.684 697.469 239.284 697.563 239.813 697.554C240.341 697.545 240.806 697.379 241.206 697.055C241.615 696.74 241.961 696.212 242.242 695.47L242.638 694.409L235.517 674.364H240.426L244.952 689.193H245.157L249.695 674.364H254.617L246.755 696.378C246.388 697.418 245.902 698.308 245.297 699.05C244.692 699.8 243.951 700.371 243.073 700.763C242.203 701.163 241.164 701.364 239.953 701.364ZM282.269 679.554L278.05 680.014C277.931 679.588 277.722 679.188 277.424 678.812C277.134 678.438 276.742 678.135 276.248 677.905C275.753 677.675 275.148 677.56 274.432 677.56C273.469 677.56 272.659 677.768 272.003 678.186C271.355 678.604 271.036 679.145 271.044 679.81C271.036 680.381 271.245 680.845 271.671 681.203C272.105 681.561 272.821 681.855 273.819 682.085L277.168 682.801C279.026 683.202 280.407 683.837 281.31 684.706C282.222 685.575 282.682 686.713 282.691 688.119C282.682 689.355 282.32 690.446 281.604 691.392C280.897 692.33 279.912 693.062 278.651 693.591C277.39 694.119 275.941 694.384 274.304 694.384C271.901 694.384 269.966 693.881 268.5 692.875C267.034 691.861 266.161 690.45 265.88 688.643L270.392 688.209C270.597 689.095 271.032 689.764 271.696 690.216C272.361 690.668 273.226 690.893 274.292 690.893C275.391 690.893 276.273 690.668 276.938 690.216C277.611 689.764 277.948 689.206 277.948 688.541C277.948 687.979 277.73 687.514 277.296 687.148C276.87 686.781 276.205 686.5 275.301 686.304L271.952 685.601C270.069 685.209 268.675 684.548 267.772 683.619C266.868 682.682 266.421 681.497 266.429 680.065C266.421 678.855 266.749 677.807 267.414 676.92C268.087 676.026 269.02 675.335 270.213 674.849C271.415 674.355 272.8 674.108 274.368 674.108C276.669 674.108 278.48 674.598 279.801 675.578C281.131 676.558 281.953 677.884 282.269 679.554ZM299.022 685.741V674.364H303.65V694H299.163V690.51H298.958C298.515 691.609 297.787 692.509 296.772 693.207C295.767 693.906 294.527 694.256 293.052 694.256C291.765 694.256 290.627 693.97 289.639 693.399C288.659 692.82 287.892 691.98 287.338 690.881C286.784 689.773 286.507 688.435 286.507 686.866V674.364H291.135V686.151C291.135 687.395 291.475 688.384 292.157 689.116C292.839 689.849 293.734 690.216 294.842 690.216C295.524 690.216 296.184 690.05 296.824 689.717C297.463 689.385 297.987 688.891 298.396 688.234C298.814 687.57 299.022 686.739 299.022 685.741ZM308.614 694V667.818H313.241V677.611H313.433C313.672 677.134 314.009 676.626 314.443 676.089C314.878 675.544 315.466 675.08 316.207 674.696C316.949 674.304 317.895 674.108 319.045 674.108C320.563 674.108 321.93 674.496 323.149 675.271C324.376 676.038 325.348 677.176 326.064 678.685C326.788 680.185 327.151 682.026 327.151 684.207C327.151 686.364 326.797 688.196 326.089 689.705C325.382 691.213 324.419 692.364 323.2 693.156C321.982 693.949 320.601 694.345 319.058 694.345C317.933 694.345 317 694.158 316.259 693.783C315.517 693.408 314.92 692.956 314.469 692.428C314.026 691.891 313.68 691.384 313.433 690.906H313.165V694H308.614ZM313.152 684.182C313.152 685.452 313.331 686.564 313.689 687.518C314.055 688.473 314.58 689.219 315.261 689.756C315.952 690.284 316.787 690.548 317.767 690.548C318.79 690.548 319.646 690.276 320.337 689.73C321.027 689.176 321.547 688.422 321.896 687.467C322.254 686.504 322.433 685.409 322.433 684.182C322.433 682.963 322.259 681.881 321.909 680.935C321.56 679.989 321.04 679.247 320.349 678.71C319.659 678.173 318.798 677.905 317.767 677.905C316.778 677.905 315.939 678.165 315.249 678.685C314.558 679.205 314.034 679.933 313.676 680.871C313.327 681.808 313.152 682.912 313.152 684.182ZM355.534 679.554L351.316 680.014C351.196 679.588 350.988 679.188 350.689 678.812C350.4 678.438 350.007 678.135 349.513 677.905C349.019 677.675 348.414 677.56 347.698 677.56C346.735 677.56 345.925 677.768 345.269 678.186C344.621 678.604 344.301 679.145 344.31 679.81C344.301 680.381 344.51 680.845 344.936 681.203C345.371 681.561 346.087 681.855 347.084 682.085L350.434 682.801C352.292 683.202 353.672 683.837 354.576 684.706C355.488 685.575 355.948 686.713 355.956 688.119C355.948 689.355 355.586 690.446 354.87 691.392C354.162 692.33 353.178 693.062 351.917 693.591C350.655 694.119 349.206 694.384 347.57 694.384C345.167 694.384 343.232 693.881 341.766 692.875C340.3 691.861 339.426 690.45 339.145 688.643L343.658 688.209C343.863 689.095 344.297 689.764 344.962 690.216C345.627 690.668 346.492 690.893 347.557 690.893C348.657 690.893 349.539 690.668 350.203 690.216C350.877 689.764 351.213 689.206 351.213 688.541C351.213 687.979 350.996 687.514 350.561 687.148C350.135 686.781 349.471 686.5 348.567 686.304L345.218 685.601C343.334 685.209 341.941 684.548 341.037 683.619C340.134 682.682 339.686 681.497 339.695 680.065C339.686 678.855 340.015 677.807 340.679 676.92C341.353 676.026 342.286 675.335 343.479 674.849C344.681 674.355 346.066 674.108 347.634 674.108C349.935 674.108 351.746 674.598 353.067 675.578C354.397 676.558 355.219 677.884 355.534 679.554ZM368.466 694.384C366.497 694.384 364.797 693.974 363.365 693.156C361.941 692.33 360.846 691.162 360.079 689.653C359.312 688.136 358.929 686.351 358.929 684.297C358.929 682.277 359.312 680.504 360.079 678.979C360.855 677.445 361.937 676.251 363.326 675.399C364.716 674.538 366.348 674.108 368.223 674.108C369.433 674.108 370.575 674.304 371.649 674.696C372.731 675.08 373.686 675.676 374.512 676.486C375.348 677.295 376.004 678.327 376.481 679.58C376.958 680.824 377.197 682.307 377.197 684.028V685.447H361.102V682.328H372.761C372.752 681.442 372.561 680.653 372.186 679.963C371.811 679.264 371.287 678.714 370.613 678.314C369.949 677.913 369.173 677.713 368.287 677.713C367.341 677.713 366.51 677.943 365.794 678.403C365.078 678.855 364.52 679.452 364.119 680.193C363.727 680.926 363.527 681.732 363.518 682.609V685.332C363.518 686.474 363.727 687.455 364.145 688.273C364.562 689.082 365.146 689.705 365.896 690.139C366.646 690.565 367.524 690.778 368.529 690.778C369.203 690.778 369.812 690.685 370.358 690.497C370.903 690.301 371.376 690.016 371.777 689.641C372.177 689.266 372.48 688.801 372.684 688.247L377.005 688.733C376.733 689.875 376.213 690.872 375.446 691.724C374.687 692.568 373.716 693.224 372.531 693.693C371.346 694.153 369.991 694.384 368.466 694.384ZM389.652 701.773C387.99 701.773 386.563 701.547 385.369 701.095C384.176 700.652 383.217 700.055 382.493 699.305C381.768 698.555 381.266 697.724 380.984 696.812L385.152 695.803C385.339 696.186 385.612 696.565 385.97 696.94C386.328 697.324 386.81 697.639 387.415 697.886C388.028 698.142 388.8 698.27 389.729 698.27C391.041 698.27 392.128 697.95 392.989 697.311C393.849 696.68 394.28 695.641 394.28 694.192V690.472H394.05C393.811 690.949 393.462 691.439 393.001 691.942C392.55 692.445 391.949 692.866 391.199 693.207C390.457 693.548 389.524 693.719 388.399 693.719C386.891 693.719 385.523 693.365 384.295 692.658C383.077 691.942 382.105 690.876 381.381 689.462C380.665 688.038 380.307 686.257 380.307 684.118C380.307 681.962 380.665 680.142 381.381 678.659C382.105 677.168 383.081 676.038 384.308 675.271C385.536 674.496 386.903 674.108 388.412 674.108C389.563 674.108 390.509 674.304 391.25 674.696C392 675.08 392.597 675.544 393.04 676.089C393.483 676.626 393.82 677.134 394.05 677.611H394.305V674.364H398.869V694.32C398.869 695.999 398.469 697.388 397.668 698.487C396.866 699.587 395.771 700.409 394.382 700.955C392.993 701.5 391.416 701.773 389.652 701.773ZM389.69 690.088C390.67 690.088 391.506 689.849 392.196 689.372C392.886 688.895 393.411 688.209 393.768 687.314C394.126 686.419 394.305 685.345 394.305 684.092C394.305 682.857 394.126 681.774 393.768 680.845C393.419 679.916 392.899 679.196 392.209 678.685C391.527 678.165 390.688 677.905 389.69 677.905C388.659 677.905 387.798 678.173 387.108 678.71C386.418 679.247 385.898 679.984 385.548 680.922C385.199 681.851 385.024 682.908 385.024 684.092C385.024 685.294 385.199 686.347 385.548 687.25C385.906 688.145 386.43 688.844 387.121 689.347C387.82 689.841 388.676 690.088 389.69 690.088ZM403.612 694V674.364H408.036V677.7H408.266C408.675 676.575 409.352 675.697 410.298 675.067C411.244 674.428 412.374 674.108 413.686 674.108C415.016 674.108 416.136 674.432 417.048 675.08C417.969 675.719 418.616 676.592 418.991 677.7H419.196C419.631 676.609 420.364 675.74 421.395 675.092C422.435 674.436 423.666 674.108 425.089 674.108C426.896 674.108 428.371 674.679 429.513 675.821C430.655 676.963 431.226 678.629 431.226 680.82V694H426.585V681.536C426.585 680.317 426.261 679.426 425.614 678.864C424.966 678.293 424.173 678.007 423.236 678.007C422.119 678.007 421.246 678.357 420.615 679.055C419.993 679.746 419.682 680.645 419.682 681.753V694H415.143V681.344C415.143 680.33 414.837 679.52 414.223 678.915C413.618 678.31 412.825 678.007 411.845 678.007C411.18 678.007 410.575 678.178 410.03 678.518C409.484 678.851 409.05 679.324 408.726 679.938C408.402 680.543 408.24 681.25 408.24 682.06V694H403.612ZM444.614 694.384C442.645 694.384 440.945 693.974 439.513 693.156C438.09 692.33 436.995 691.162 436.228 689.653C435.461 688.136 435.077 686.351 435.077 684.297C435.077 682.277 435.461 680.504 436.228 678.979C437.003 677.445 438.086 676.251 439.475 675.399C440.864 674.538 442.496 674.108 444.371 674.108C445.581 674.108 446.723 674.304 447.797 674.696C448.88 675.08 449.834 675.676 450.661 676.486C451.496 677.295 452.152 678.327 452.63 679.58C453.107 680.824 453.346 682.307 453.346 684.028V685.447H437.25V682.328H448.909C448.901 681.442 448.709 680.653 448.334 679.963C447.959 679.264 447.435 678.714 446.762 678.314C446.097 677.913 445.321 677.713 444.435 677.713C443.489 677.713 442.658 677.943 441.942 678.403C441.226 678.855 440.668 679.452 440.267 680.193C439.875 680.926 439.675 681.732 439.667 682.609V685.332C439.667 686.474 439.875 687.455 440.293 688.273C440.711 689.082 441.294 689.705 442.044 690.139C442.794 690.565 443.672 690.778 444.678 690.778C445.351 690.778 445.961 690.685 446.506 690.497C447.051 690.301 447.525 690.016 447.925 689.641C448.326 689.266 448.628 688.801 448.833 688.247L453.154 688.733C452.881 689.875 452.361 690.872 451.594 691.724C450.836 692.568 449.864 693.224 448.679 693.693C447.495 694.153 446.14 694.384 444.614 694.384ZM461.888 682.494V694H457.261V674.364H461.684V677.7H461.914C462.366 676.601 463.086 675.727 464.075 675.08C465.072 674.432 466.303 674.108 467.769 674.108C469.124 674.108 470.305 674.398 471.31 674.977C472.325 675.557 473.109 676.396 473.663 677.496C474.225 678.595 474.502 679.929 474.494 681.497V694H469.866V682.213C469.866 680.901 469.525 679.874 468.843 679.132C468.17 678.391 467.237 678.02 466.043 678.02C465.234 678.02 464.513 678.199 463.883 678.557C463.261 678.906 462.771 679.413 462.413 680.078C462.063 680.743 461.888 681.548 461.888 682.494ZM489.004 674.364V677.943H477.715V674.364H489.004ZM480.502 669.659H485.13V688.094C485.13 688.716 485.224 689.193 485.411 689.526C485.607 689.849 485.863 690.071 486.178 690.19C486.494 690.31 486.843 690.369 487.227 690.369C487.516 690.369 487.781 690.348 488.019 690.305C488.266 690.263 488.454 690.224 488.582 690.19L489.362 693.808C489.114 693.893 488.761 693.987 488.3 694.089C487.849 694.192 487.295 694.251 486.638 694.268C485.479 694.303 484.435 694.128 483.506 693.744C482.577 693.352 481.84 692.747 481.295 691.929C480.758 691.111 480.494 690.088 480.502 688.861V669.659ZM511.149 694.358C509.308 694.358 507.672 694.043 506.24 693.412C504.816 692.781 503.691 691.903 502.865 690.778C502.038 689.653 501.599 688.354 501.548 686.879H506.355C506.397 687.587 506.632 688.205 507.058 688.733C507.484 689.253 508.051 689.658 508.758 689.947C509.466 690.237 510.258 690.382 511.136 690.382C512.074 690.382 512.904 690.22 513.629 689.896C514.353 689.564 514.92 689.104 515.329 688.516C515.738 687.928 515.939 687.25 515.93 686.483C515.939 685.69 515.734 684.991 515.316 684.386C514.899 683.781 514.294 683.308 513.501 682.967C512.717 682.626 511.771 682.456 510.663 682.456H508.349V678.8H510.663C511.575 678.8 512.372 678.642 513.054 678.327C513.744 678.011 514.285 677.568 514.677 676.997C515.069 676.418 515.261 675.749 515.252 674.99C515.261 674.249 515.095 673.605 514.754 673.06C514.422 672.506 513.949 672.075 513.335 671.768C512.73 671.462 512.018 671.308 511.2 671.308C510.399 671.308 509.657 671.453 508.975 671.743C508.294 672.033 507.744 672.446 507.326 672.983C506.909 673.511 506.687 674.142 506.662 674.875H502.098C502.132 673.409 502.554 672.122 503.363 671.014C504.181 669.898 505.272 669.028 506.636 668.406C508 667.776 509.529 667.46 511.225 667.46C512.973 667.46 514.49 667.788 515.777 668.445C517.072 669.092 518.074 669.966 518.781 671.065C519.488 672.165 519.842 673.379 519.842 674.709C519.85 676.183 519.416 677.419 518.538 678.416C517.669 679.413 516.527 680.065 515.112 680.372V680.577C516.953 680.832 518.363 681.514 519.343 682.622C520.332 683.722 520.822 685.089 520.814 686.726C520.814 688.192 520.396 689.504 519.561 690.663C518.734 691.814 517.592 692.717 516.135 693.374C514.686 694.03 513.024 694.358 511.149 694.358Z" fill="#9747FF"/>
<ellipse cx="114" cy="686.708" rx="37" ry="38.7077" fill="#D9B8FF"/>
<ellipse cx="77.5" cy="667" rx="13.5" ry="14" fill="#9747FF"/>
<path d="M77.5124 673.192C76.8297 673.192 76.2198 673.075 75.6829 672.839C75.1493 672.604 74.7267 672.278 74.4151 671.86C74.1069 671.439 73.9412 670.952 73.918 670.398H75.479C75.4989 670.7 75.6 670.962 75.7823 671.184C75.9679 671.403 76.2099 671.572 76.5082 671.691C76.8065 671.81 77.1379 671.87 77.5025 671.87C77.9035 671.87 78.2582 671.8 78.5664 671.661C78.878 671.522 79.1216 671.328 79.2972 671.08C79.4729 670.828 79.5607 670.538 79.5607 670.209C79.5607 669.868 79.4729 669.568 79.2972 669.31C79.1249 669.048 78.8713 668.842 78.5366 668.693C78.2051 668.544 77.8041 668.469 77.3335 668.469H76.4734V667.217H77.3335C77.7113 667.217 78.0427 667.149 78.3278 667.013C78.6161 666.877 78.8415 666.688 79.0039 666.446C79.1663 666.201 79.2475 665.914 79.2475 665.586C79.2475 665.271 79.1763 664.998 79.0337 664.766C78.8945 664.53 78.6957 664.346 78.4371 664.214C78.1819 664.081 77.8803 664.015 77.5323 664.015C77.2009 664.015 76.891 664.076 76.6026 664.199C76.3176 664.318 76.0856 664.49 75.9066 664.716C75.7276 664.938 75.6315 665.205 75.6183 665.516H74.1317C74.1483 664.966 74.3107 664.482 74.619 664.065C74.9305 663.647 75.3415 663.321 75.8519 663.085C76.3623 662.85 76.9291 662.732 77.5522 662.732C78.2051 662.732 78.7686 662.86 79.2425 663.115C79.7198 663.367 80.0877 663.703 80.3462 664.124C80.6081 664.545 80.7373 665.006 80.734 665.506C80.7373 666.076 80.5782 666.56 80.2567 666.958C79.9386 667.356 79.5143 667.623 78.984 667.758V667.838C79.6602 667.941 80.1838 668.209 80.555 668.643C80.9296 669.078 81.1152 669.616 81.1119 670.259C81.1152 670.819 80.9594 671.321 80.6445 671.766C80.333 672.21 79.9071 672.559 79.3668 672.815C78.8266 673.066 78.2085 673.192 77.5124 673.192Z" fill="white"/>
<path d="M104.926 114.927C104.926 117.96 104.358 120.557 103.221 122.719C102.095 124.873 100.555 126.522 98.6038 127.667C96.6615 128.812 94.4581 129.385 91.9935 129.385C89.5289 129.385 87.3209 128.812 85.3694 127.667C83.4271 126.513 81.8879 124.859 80.7518 122.706C79.6249 120.544 79.0614 117.951 79.0614 114.927C79.0614 111.895 79.6249 109.302 80.7518 107.149C81.8879 104.987 83.4271 103.333 85.3694 102.188C87.3209 101.042 89.5289 100.47 91.9935 100.47C94.4581 100.47 96.6615 101.042 98.6038 102.188C100.555 103.333 102.095 104.987 103.221 107.149C104.358 109.302 104.926 111.895 104.926 114.927ZM99.7995 114.927C99.7995 112.793 99.4651 110.992 98.7962 109.526C98.1366 108.051 97.2204 106.938 96.0477 106.187C94.8749 105.426 93.5235 105.046 91.9935 105.046C90.4635 105.046 89.1121 105.426 87.9393 106.187C86.7666 106.938 85.8458 108.051 85.177 109.526C84.5174 110.992 84.1875 112.793 84.1875 114.927C84.1875 117.062 84.5174 118.867 85.177 120.342C85.8458 121.808 86.7666 122.921 87.9393 123.681C89.1121 124.433 90.4635 124.808 91.9935 124.808C93.5235 124.808 94.8749 124.433 96.0477 123.681C97.2204 122.921 98.1366 121.808 98.7962 120.342C99.4651 118.867 99.7995 117.062 99.7995 114.927ZM120.218 107.891V111.739H107.739V107.891H120.218ZM110.859 129V105.898C110.859 104.478 111.152 103.296 111.739 102.353C112.334 101.409 113.131 100.703 114.13 100.236C115.129 99.7689 116.237 99.5352 117.456 99.5352C118.317 99.5352 119.082 99.6039 119.751 99.7414C120.42 99.8788 120.914 100.002 121.235 100.112L120.245 103.96C120.035 103.896 119.769 103.832 119.448 103.768C119.128 103.695 118.77 103.658 118.376 103.658C117.451 103.658 116.796 103.883 116.411 104.331C116.036 104.771 115.848 105.403 115.848 106.228V129H110.859ZM144.323 129L148.941 100.855H152.789L148.171 129H144.323ZM131.638 121.744L132.284 117.896H153.943L153.297 121.744H131.638ZM134.428 129L139.046 100.855H142.894L138.276 129H134.428ZM133.274 111.959L133.906 108.111H155.565L154.933 111.959H133.274ZM158.839 100.855H165.078L173.434 121.249H173.764L182.119 100.855H188.359V129H183.466V109.664H183.205L175.427 128.918H171.771L163.993 109.623H163.731V129H158.839V100.855ZM198.666 116.631V129H193.691V107.891H198.446V111.478H198.693C199.179 110.296 199.953 109.357 201.016 108.661C202.088 107.964 203.412 107.616 204.988 107.616C206.444 107.616 207.713 107.928 208.794 108.551C209.885 109.174 210.728 110.076 211.323 111.258C211.928 112.44 212.226 113.874 212.216 115.559V129H207.241V116.329C207.241 114.918 206.875 113.814 206.142 113.017C205.418 112.22 204.415 111.821 203.132 111.821C202.262 111.821 201.488 112.014 200.81 112.399C200.141 112.774 199.614 113.319 199.229 114.034C198.854 114.749 198.666 115.614 198.666 116.631ZM236.081 129.412C233.974 129.412 232.164 128.95 230.652 128.024C229.15 127.099 227.991 125.821 227.176 124.19C226.369 122.55 225.966 120.663 225.966 118.528C225.966 116.384 226.378 114.492 227.203 112.852C228.028 111.203 229.191 109.92 230.694 109.004C232.205 108.079 233.992 107.616 236.053 107.616C237.767 107.616 239.283 107.932 240.602 108.564C241.931 109.187 242.989 110.071 243.777 111.217C244.565 112.353 245.014 113.681 245.124 115.202H240.369C240.176 114.185 239.718 113.338 238.994 112.66C238.28 111.973 237.322 111.629 236.122 111.629C235.105 111.629 234.212 111.904 233.442 112.454C232.673 112.994 232.073 113.773 231.642 114.79C231.221 115.807 231.01 117.025 231.01 118.445C231.01 119.884 231.221 121.121 231.642 122.156C232.063 123.182 232.654 123.975 233.415 124.534C234.184 125.083 235.087 125.358 236.122 125.358C236.855 125.358 237.51 125.221 238.087 124.946C238.674 124.662 239.164 124.254 239.558 123.723C239.952 123.191 240.222 122.545 240.369 121.785H245.124C245.005 123.278 244.565 124.602 243.804 125.757C243.044 126.902 242.009 127.8 240.699 128.45C239.388 129.092 237.849 129.412 236.081 129.412ZM262.663 120.122V107.891H267.638V129H262.814V125.248H262.594C262.118 126.43 261.335 127.397 260.244 128.148C259.163 128.899 257.83 129.275 256.245 129.275C254.862 129.275 253.639 128.968 252.576 128.354C251.522 127.731 250.698 126.829 250.102 125.647C249.507 124.456 249.209 123.017 249.209 121.331V107.891H254.184V120.562C254.184 121.9 254.55 122.962 255.283 123.75C256.016 124.538 256.978 124.932 258.169 124.932C258.902 124.932 259.612 124.753 260.299 124.396C260.986 124.039 261.55 123.507 261.99 122.802C262.439 122.087 262.663 121.194 262.663 120.122ZM289.438 113.471L284.903 113.965C284.774 113.507 284.55 113.077 284.229 112.673C283.918 112.27 283.496 111.945 282.965 111.698C282.433 111.45 281.783 111.327 281.013 111.327C279.978 111.327 279.108 111.551 278.402 112C277.706 112.449 277.362 113.031 277.371 113.745C277.362 114.359 277.587 114.859 278.045 115.243C278.512 115.628 279.282 115.944 280.354 116.192L283.954 116.961C285.952 117.392 287.436 118.074 288.407 119.009C289.387 119.943 289.882 121.167 289.891 122.678C289.882 124.007 289.493 125.179 288.723 126.196C287.963 127.204 286.904 127.992 285.548 128.56C284.193 129.128 282.635 129.412 280.876 129.412C278.292 129.412 276.212 128.872 274.637 127.791C273.061 126.7 272.122 125.184 271.819 123.242L276.671 122.774C276.89 123.727 277.358 124.447 278.072 124.932C278.787 125.418 279.717 125.66 280.862 125.66C282.044 125.66 282.992 125.418 283.707 124.932C284.431 124.447 284.793 123.846 284.793 123.132C284.793 122.527 284.559 122.028 284.092 121.634C283.634 121.24 282.919 120.937 281.948 120.727L278.347 119.971C276.322 119.549 274.824 118.839 273.853 117.841C272.882 116.833 272.401 115.559 272.41 114.02C272.401 112.719 272.754 111.592 273.468 110.639C274.192 109.677 275.195 108.935 276.478 108.413C277.77 107.882 279.259 107.616 280.945 107.616C283.418 107.616 285.365 108.143 286.785 109.196C288.215 110.25 289.099 111.675 289.438 113.471ZM304.534 107.891V111.739H292.399V107.891H304.534ZM295.395 102.834H300.37V122.651C300.37 123.32 300.471 123.833 300.673 124.19C300.883 124.538 301.158 124.776 301.497 124.905C301.836 125.033 302.212 125.097 302.624 125.097C302.936 125.097 303.22 125.074 303.476 125.028C303.742 124.982 303.943 124.941 304.081 124.905L304.919 128.794C304.653 128.885 304.273 128.986 303.778 129.096C303.293 129.206 302.697 129.27 301.992 129.289C300.746 129.325 299.624 129.137 298.625 128.725C297.626 128.304 296.834 127.653 296.247 126.774C295.67 125.894 295.386 124.795 295.395 123.475V102.834ZM317.676 129.412C315.615 129.412 313.828 128.959 312.316 128.052C310.804 127.145 309.632 125.876 308.798 124.245C307.973 122.614 307.561 120.708 307.561 118.528C307.561 116.347 307.973 114.437 308.798 112.797C309.632 111.157 310.804 109.884 312.316 108.977C313.828 108.07 315.615 107.616 317.676 107.616C319.737 107.616 321.524 108.07 323.036 108.977C324.547 109.884 325.716 111.157 326.54 112.797C327.374 114.437 327.791 116.347 327.791 118.528C327.791 120.708 327.374 122.614 326.54 124.245C325.716 125.876 324.547 127.145 323.036 128.052C321.524 128.959 319.737 129.412 317.676 129.412ZM317.703 125.427C318.821 125.427 319.756 125.12 320.507 124.506C321.258 123.883 321.817 123.049 322.184 122.005C322.559 120.96 322.747 119.797 322.747 118.514C322.747 117.222 322.559 116.054 322.184 115.01C321.817 113.956 321.258 113.118 320.507 112.495C319.756 111.872 318.821 111.56 317.703 111.56C316.558 111.56 315.605 111.872 314.845 112.495C314.094 113.118 313.53 113.956 313.155 115.01C312.788 116.054 312.605 117.222 312.605 118.514C312.605 119.797 312.788 120.96 313.155 122.005C313.53 123.049 314.094 123.883 314.845 124.506C315.605 125.12 316.558 125.427 317.703 125.427ZM332.013 129V107.891H336.768V111.478H337.016C337.455 110.268 338.184 109.325 339.201 108.647C340.218 107.96 341.432 107.616 342.843 107.616C344.272 107.616 345.477 107.964 346.457 108.661C347.446 109.348 348.143 110.287 348.546 111.478H348.766C349.233 110.305 350.021 109.371 351.13 108.674C352.247 107.969 353.571 107.616 355.101 107.616C357.044 107.616 358.629 108.23 359.856 109.458C361.084 110.685 361.698 112.476 361.698 114.831V129H356.709V115.601C356.709 114.291 356.361 113.333 355.665 112.728C354.968 112.115 354.116 111.808 353.109 111.808C351.908 111.808 350.969 112.183 350.291 112.935C349.622 113.677 349.288 114.643 349.288 115.834V129H344.409V115.395C344.409 114.304 344.079 113.434 343.42 112.783C342.769 112.133 341.917 111.808 340.864 111.808C340.149 111.808 339.499 111.991 338.912 112.357C338.326 112.715 337.859 113.223 337.51 113.883C337.162 114.533 336.988 115.294 336.988 116.164V129H332.013ZM376.09 129.412C373.974 129.412 372.146 128.973 370.607 128.093C369.077 127.204 367.899 125.949 367.075 124.327C366.25 122.697 365.838 120.777 365.838 118.569C365.838 116.398 366.25 114.492 367.075 112.852C367.909 111.203 369.072 109.92 370.565 109.004C372.059 108.079 373.813 107.616 375.829 107.616C377.13 107.616 378.358 107.827 379.512 108.248C380.676 108.661 381.702 109.302 382.591 110.172C383.488 111.043 384.194 112.151 384.707 113.498C385.22 114.836 385.477 116.43 385.477 118.281V119.806H368.174V116.453H380.708C380.699 115.5 380.492 114.652 380.089 113.91C379.686 113.159 379.123 112.568 378.399 112.137C377.684 111.707 376.851 111.492 375.898 111.492C374.881 111.492 373.987 111.739 373.218 112.234C372.448 112.719 371.848 113.361 371.418 114.158C370.996 114.946 370.781 115.811 370.772 116.755V119.682C370.772 120.91 370.996 121.964 371.445 122.843C371.894 123.714 372.522 124.382 373.328 124.85C374.134 125.308 375.078 125.537 376.159 125.537C376.883 125.537 377.538 125.436 378.124 125.234C378.71 125.024 379.219 124.717 379.65 124.314C380.08 123.911 380.405 123.411 380.625 122.816L385.27 123.338C384.977 124.566 384.418 125.638 383.594 126.554C382.778 127.461 381.734 128.166 380.46 128.67C379.187 129.165 377.73 129.412 376.09 129.412ZM389.685 129V107.891H394.509V111.409H394.729C395.114 110.191 395.773 109.251 396.708 108.592C397.652 107.923 398.728 107.589 399.938 107.589C400.212 107.589 400.519 107.602 400.858 107.63C401.206 107.648 401.495 107.68 401.724 107.726V112.302C401.513 112.229 401.179 112.165 400.721 112.11C400.272 112.046 399.837 112.014 399.415 112.014C398.508 112.014 397.693 112.211 396.969 112.605C396.254 112.99 395.691 113.525 395.279 114.213C394.866 114.9 394.66 115.692 394.66 116.59V129H389.685ZM421.713 113.471L417.178 113.965C417.05 113.507 416.825 113.077 416.505 112.673C416.193 112.27 415.772 111.945 415.24 111.698C414.709 111.45 414.058 111.327 413.289 111.327C412.253 111.327 411.383 111.551 410.678 112C409.981 112.449 409.638 113.031 409.647 113.745C409.638 114.359 409.862 114.859 410.32 115.243C410.788 115.628 411.557 115.944 412.629 116.192L416.23 116.961C418.227 117.392 419.711 118.074 420.682 119.009C421.663 119.943 422.157 121.167 422.167 122.678C422.157 124.007 421.768 125.179 420.998 126.196C420.238 127.204 419.18 127.992 417.824 128.56C416.468 129.128 414.91 129.412 413.151 129.412C410.568 129.412 408.488 128.872 406.912 127.791C405.336 126.7 404.397 125.184 404.095 123.242L408.946 122.774C409.166 123.727 409.633 124.447 410.348 124.932C411.062 125.418 411.992 125.66 413.138 125.66C414.319 125.66 415.268 125.418 415.982 124.932C416.706 124.447 417.068 123.846 417.068 123.132C417.068 122.527 416.834 122.028 416.367 121.634C415.909 121.24 415.194 120.937 414.223 120.727L410.623 119.971C408.598 119.549 407.1 118.839 406.129 117.841C405.157 116.833 404.676 115.559 404.686 114.02C404.676 112.719 405.029 111.592 405.744 110.639C406.468 109.677 407.471 108.935 408.754 108.413C410.045 107.882 411.534 107.616 413.22 107.616C415.694 107.616 417.641 108.143 419.061 109.196C420.49 110.25 421.374 111.675 421.713 113.471ZM445.076 129.412C443.015 129.412 441.228 128.959 439.716 128.052C438.205 127.145 437.032 125.876 436.198 124.245C435.374 122.614 434.961 120.708 434.961 118.528C434.961 116.347 435.374 114.437 436.198 112.797C437.032 111.157 438.205 109.884 439.716 108.977C441.228 108.07 443.015 107.616 445.076 107.616C447.137 107.616 448.924 108.07 450.436 108.977C451.947 109.884 453.116 111.157 453.94 112.797C454.774 114.437 455.191 116.347 455.191 118.528C455.191 120.708 454.774 122.614 453.94 124.245C453.116 125.876 451.947 127.145 450.436 128.052C448.924 128.959 447.137 129.412 445.076 129.412ZM445.104 125.427C446.221 125.427 447.156 125.12 447.907 124.506C448.658 123.883 449.217 123.049 449.584 122.005C449.959 120.96 450.147 119.797 450.147 118.514C450.147 117.222 449.959 116.054 449.584 115.01C449.217 113.956 448.658 113.118 447.907 112.495C447.156 111.872 446.221 111.56 445.104 111.56C443.958 111.56 443.005 111.872 442.245 112.495C441.494 113.118 440.93 113.956 440.555 115.01C440.188 116.054 440.005 117.222 440.005 118.514C440.005 119.797 440.188 120.96 440.555 122.005C440.93 123.049 441.494 123.883 442.245 124.506C443.005 125.12 443.958 125.427 445.104 125.427ZM477.551 107.891L470.033 129H464.536L457.019 107.891H462.323L467.175 123.572H467.395L472.259 107.891H477.551ZM489.62 129.412C487.504 129.412 485.676 128.973 484.137 128.093C482.607 127.204 481.429 125.949 480.605 124.327C479.78 122.697 479.368 120.777 479.368 118.569C479.368 116.398 479.78 114.492 480.605 112.852C481.439 111.203 482.602 109.92 484.096 109.004C485.589 108.079 487.343 107.616 489.359 107.616C490.66 107.616 491.888 107.827 493.042 108.248C494.206 108.661 495.232 109.302 496.121 110.172C497.018 111.043 497.724 112.151 498.237 113.498C498.75 114.836 499.007 116.43 499.007 118.281V119.806H481.704V116.453H494.238C494.229 115.5 494.023 114.652 493.619 113.91C493.216 113.159 492.653 112.568 491.929 112.137C491.214 111.707 490.381 111.492 489.428 111.492C488.411 111.492 487.518 111.739 486.748 112.234C485.978 112.719 485.378 113.361 484.948 114.158C484.526 114.946 484.311 115.811 484.302 116.755V119.682C484.302 120.91 484.526 121.964 484.975 122.843C485.424 123.714 486.052 124.382 486.858 124.85C487.664 125.308 488.608 125.537 489.689 125.537C490.413 125.537 491.068 125.436 491.654 125.234C492.241 125.024 492.749 124.717 493.18 124.314C493.61 123.911 493.935 123.411 494.155 122.816L498.8 123.338C498.507 124.566 497.948 125.638 497.124 126.554C496.308 127.461 495.264 128.166 493.99 128.67C492.717 129.165 491.26 129.412 489.62 129.412ZM503.215 129V107.891H508.039V111.409H508.259C508.644 110.191 509.303 109.251 510.238 108.592C511.182 107.923 512.258 107.589 513.468 107.589C513.742 107.589 514.049 107.602 514.388 107.63C514.736 107.648 515.025 107.68 515.254 107.726V112.302C515.043 112.229 514.709 112.165 514.251 112.11C513.802 112.046 513.367 112.014 512.945 112.014C512.038 112.014 511.223 112.211 510.499 112.605C509.784 112.99 509.221 113.525 508.809 114.213C508.396 114.9 508.19 115.692 508.19 116.59V129H503.215ZM524.256 129.426C522.918 129.426 521.713 129.188 520.641 128.711C519.579 128.226 518.736 127.511 518.113 126.568C517.499 125.624 517.192 124.46 517.192 123.077C517.192 121.886 517.412 120.901 517.852 120.122C518.291 119.343 518.891 118.72 519.652 118.253C520.412 117.786 521.269 117.433 522.222 117.195C523.184 116.947 524.178 116.769 525.204 116.659C526.441 116.531 527.444 116.416 528.214 116.315C528.983 116.205 529.542 116.04 529.89 115.821C530.248 115.592 530.426 115.239 530.426 114.762V114.68C530.426 113.645 530.119 112.843 529.506 112.275C528.892 111.707 528.008 111.423 526.853 111.423C525.635 111.423 524.668 111.689 523.953 112.22C523.248 112.751 522.772 113.379 522.524 114.103L517.879 113.443C518.246 112.16 518.85 111.088 519.693 110.227C520.536 109.357 521.567 108.706 522.785 108.276C524.004 107.836 525.351 107.616 526.826 107.616C527.843 107.616 528.855 107.735 529.863 107.973C530.871 108.212 531.791 108.606 532.625 109.155C533.459 109.696 534.128 110.433 534.632 111.368C535.145 112.302 535.401 113.471 535.401 114.872V129H530.619V126.1H530.454C530.151 126.687 529.725 127.236 529.176 127.749C528.635 128.253 527.953 128.661 527.128 128.973C526.313 129.275 525.355 129.426 524.256 129.426ZM525.548 125.77C526.546 125.77 527.412 125.573 528.145 125.179C528.878 124.776 529.441 124.245 529.835 123.585C530.238 122.926 530.44 122.206 530.44 121.428V118.94C530.284 119.068 530.019 119.188 529.643 119.298C529.276 119.407 528.864 119.504 528.406 119.586C527.948 119.669 527.494 119.742 527.046 119.806C526.597 119.87 526.207 119.925 525.877 119.971C525.135 120.072 524.471 120.237 523.885 120.466C523.298 120.695 522.836 121.015 522.497 121.428C522.158 121.831 521.988 122.353 521.988 122.994C521.988 123.911 522.323 124.602 522.991 125.07C523.66 125.537 524.512 125.77 525.548 125.77ZM545.379 100.855V129H540.404V100.855H545.379ZM555.469 100.855V129H550.494V100.855H555.469ZM566.426 125.152L566.247 126.664C566.119 127.818 565.89 128.991 565.56 130.182C565.239 131.382 564.9 132.486 564.543 133.494C564.186 134.502 563.897 135.294 563.677 135.871H560.324C560.452 135.313 560.626 134.552 560.846 133.59C561.075 132.628 561.295 131.547 561.506 130.347C561.717 129.147 561.859 127.928 561.932 126.691L562.028 125.152H566.426ZM591.338 129L595.956 100.855H599.804L595.186 129H591.338ZM578.654 121.744L579.299 117.896H600.958L600.312 121.744H578.654ZM581.443 129L586.061 100.855H589.909L585.291 129H581.443ZM580.289 111.959L580.921 108.111H602.58L601.948 111.959H580.289ZM605.854 100.855H612.093L620.449 121.249H620.779L629.135 100.855H635.374V129H630.481V109.664H630.22L622.442 128.918H618.786L611.008 109.623H610.747V129H605.854V100.855ZM645.681 116.631V129H640.706V107.891H645.461V111.478H645.709C646.194 110.296 646.968 109.357 648.031 108.661C649.103 107.964 650.427 107.616 652.003 107.616C653.46 107.616 654.729 107.928 655.81 108.551C656.9 109.174 657.743 110.076 658.338 111.258C658.943 112.44 659.241 113.874 659.232 115.559V129H654.257V116.329C654.257 114.918 653.89 113.814 653.157 113.017C652.433 112.22 651.43 111.821 650.148 111.821C649.277 111.821 648.503 112.014 647.825 112.399C647.156 112.774 646.629 113.319 646.245 114.034C645.869 114.749 645.681 115.614 645.681 116.631ZM679.963 129.426C678.625 129.426 677.42 129.188 676.348 128.711C675.286 128.226 674.443 127.511 673.82 126.568C673.206 125.624 672.899 124.46 672.899 123.077C672.899 121.886 673.119 120.901 673.559 120.122C673.998 119.343 674.598 118.72 675.359 118.253C676.119 117.786 676.976 117.433 677.929 117.195C678.891 116.947 679.885 116.769 680.911 116.659C682.148 116.531 683.151 116.416 683.921 116.315C684.69 116.205 685.249 116.04 685.597 115.821C685.955 115.592 686.133 115.239 686.133 114.762V114.68C686.133 113.645 685.826 112.843 685.213 112.275C684.599 111.707 683.715 111.423 682.56 111.423C681.342 111.423 680.375 111.689 679.66 112.22C678.955 112.751 678.479 113.379 678.231 114.103L673.586 113.443C673.953 112.16 674.557 111.088 675.4 110.227C676.243 109.357 677.274 108.706 678.492 108.276C679.711 107.836 681.058 107.616 682.533 107.616C683.55 107.616 684.562 107.735 685.57 107.973C686.578 108.212 687.498 108.606 688.332 109.155C689.166 109.696 689.835 110.433 690.339 111.368C690.852 112.302 691.108 113.471 691.108 114.872V129H686.326V126.1H686.161C685.858 126.687 685.432 127.236 684.883 127.749C684.342 128.253 683.66 128.661 682.835 128.973C682.02 129.275 681.062 129.426 679.963 129.426ZM681.255 125.77C682.253 125.77 683.119 125.573 683.852 125.179C684.585 124.776 685.148 124.245 685.542 123.585C685.945 122.926 686.147 122.206 686.147 121.428V118.94C685.991 119.068 685.726 119.188 685.35 119.298C684.983 119.407 684.571 119.504 684.113 119.586C683.655 119.669 683.201 119.742 682.753 119.806C682.304 119.87 681.914 119.925 681.584 119.971C680.842 120.072 680.178 120.237 679.592 120.466C679.005 120.695 678.543 121.015 678.204 121.428C677.865 121.831 677.695 122.353 677.695 122.994C677.695 123.911 678.03 124.602 678.698 125.07C679.367 125.537 680.219 125.77 681.255 125.77ZM696.111 129V107.891H700.934V111.409H701.154C701.539 110.191 702.199 109.251 703.133 108.592C704.077 107.923 705.154 107.589 706.363 107.589C706.638 107.589 706.945 107.602 707.284 107.63C707.632 107.648 707.92 107.68 708.149 107.726V112.302C707.939 112.229 707.604 112.165 707.146 112.11C706.697 112.046 706.262 112.014 705.841 112.014C704.934 112.014 704.118 112.211 703.394 112.605C702.68 112.99 702.116 113.525 701.704 114.213C701.292 114.9 701.086 115.692 701.086 116.59V129H696.111ZM719.931 129.412C717.814 129.412 715.986 128.973 714.447 128.093C712.917 127.204 711.74 125.949 710.915 124.327C710.091 122.697 709.678 120.777 709.678 118.569C709.678 116.398 710.091 114.492 710.915 112.852C711.749 111.203 712.913 109.92 714.406 109.004C715.899 108.079 717.654 107.616 719.669 107.616C720.97 107.616 722.198 107.827 723.353 108.248C724.516 108.661 725.542 109.302 726.431 110.172C727.329 111.043 728.034 112.151 728.547 113.498C729.06 114.836 729.317 116.43 729.317 118.281V119.806H712.015V116.453H724.548C724.539 115.5 724.333 114.652 723.93 113.91C723.527 113.159 722.963 112.568 722.239 112.137C721.525 111.707 720.691 111.492 719.738 111.492C718.721 111.492 717.828 111.739 717.058 112.234C716.289 112.719 715.689 113.361 715.258 114.158C714.837 114.946 714.621 115.811 714.612 116.755V119.682C714.612 120.91 714.837 121.964 715.285 122.843C715.734 123.714 716.362 124.382 717.168 124.85C717.975 125.308 718.918 125.537 719.999 125.537C720.723 125.537 721.378 125.436 721.965 125.234C722.551 125.024 723.059 124.717 723.49 124.314C723.921 123.911 724.246 123.411 724.466 122.816L729.111 123.338C728.818 124.566 728.259 125.638 727.434 126.554C726.619 127.461 725.574 128.166 724.301 128.67C723.027 129.165 721.571 129.412 719.931 129.412ZM747.482 129L741.517 107.891H746.588L750.299 122.733H750.491L754.284 107.891H759.301L763.094 122.651H763.3L766.955 107.891H772.04L766.062 129H760.881L756.923 114.735H756.634L752.676 129H747.482ZM775.514 129V107.891H780.489V129H775.514ZM778.015 104.895C777.227 104.895 776.549 104.634 775.981 104.112C775.413 103.58 775.129 102.943 775.129 102.201C775.129 101.45 775.413 100.813 775.981 100.291C776.549 99.7597 777.227 99.494 778.015 99.494C778.812 99.494 779.49 99.7597 780.049 100.291C780.617 100.813 780.901 101.45 780.901 102.201C780.901 102.943 780.617 103.58 780.049 104.112C779.49 104.634 778.812 104.895 778.015 104.895ZM796.145 107.891V111.739H784.01V107.891H796.145ZM787.006 102.834H791.981V122.651C791.981 123.32 792.082 123.833 792.284 124.19C792.494 124.538 792.769 124.776 793.108 124.905C793.447 125.033 793.823 125.097 794.235 125.097C794.547 125.097 794.831 125.074 795.087 125.028C795.353 124.982 795.554 124.941 795.692 124.905L796.53 128.794C796.264 128.885 795.884 128.986 795.389 129.096C794.904 129.206 794.308 129.27 793.603 129.289C792.357 129.325 791.234 129.137 790.236 128.725C789.237 128.304 788.445 127.653 787.858 126.774C787.281 125.894 786.997 124.795 787.006 123.475V102.834ZM805.734 116.631V129H800.759V100.855H805.624V111.478H805.872C806.367 110.287 807.132 109.348 808.167 108.661C809.211 107.964 810.54 107.616 812.152 107.616C813.618 107.616 814.896 107.923 815.987 108.537C817.077 109.151 817.92 110.049 818.515 111.23C819.12 112.412 819.422 113.855 819.422 115.559V129H814.447V116.329C814.447 114.909 814.081 113.805 813.348 113.017C812.624 112.22 811.607 111.821 810.297 111.821C809.417 111.821 808.63 112.014 807.933 112.399C807.246 112.774 806.706 113.319 806.312 114.034C805.927 114.749 805.734 115.614 805.734 116.631ZM824.493 129V107.891H829.468V129H824.493ZM826.995 104.895C826.207 104.895 825.529 104.634 824.961 104.112C824.393 103.58 824.109 102.943 824.109 102.201C824.109 101.45 824.393 100.813 824.961 100.291C825.529 99.7597 826.207 99.494 826.995 99.494C827.792 99.494 828.47 99.7597 829.029 100.291C829.597 100.813 829.881 101.45 829.881 102.201C829.881 102.943 829.597 103.58 829.029 104.112C828.47 104.634 827.792 104.895 826.995 104.895ZM839.559 116.631V129H834.584V107.891H839.339V111.478H839.587C840.072 110.296 840.846 109.357 841.909 108.661C842.981 107.964 844.305 107.616 845.881 107.616C847.338 107.616 848.606 107.928 849.688 108.551C850.778 109.174 851.621 110.076 852.216 111.258C852.821 112.44 853.119 113.874 853.11 115.559V129H848.135V116.329C848.135 114.918 847.768 113.814 847.035 113.017C846.311 112.22 845.308 111.821 844.026 111.821C843.155 111.821 842.381 112.014 841.703 112.399C841.034 112.774 840.507 113.319 840.123 114.034C839.747 114.749 839.559 115.614 839.559 116.631ZM876.974 129.412C874.913 129.412 873.126 128.959 871.614 128.052C870.103 127.145 868.93 125.876 868.096 124.245C867.272 122.614 866.859 120.708 866.859 118.528C866.859 116.347 867.272 114.437 868.096 112.797C868.93 111.157 870.103 109.884 871.614 108.977C873.126 108.07 874.913 107.616 876.974 107.616C879.035 107.616 880.822 108.07 882.334 108.977C883.846 109.884 885.014 111.157 885.838 112.797C886.672 114.437 887.089 116.347 887.089 118.528C887.089 120.708 886.672 122.614 885.838 124.245C885.014 125.876 883.846 127.145 882.334 128.052C880.822 128.959 879.035 129.412 876.974 129.412ZM877.002 125.427C878.119 125.427 879.054 125.12 879.805 124.506C880.556 123.883 881.115 123.049 881.482 122.005C881.857 120.96 882.045 119.797 882.045 118.514C882.045 117.222 881.857 116.054 881.482 115.01C881.115 113.956 880.556 113.118 879.805 112.495C879.054 111.872 878.119 111.56 877.002 111.56C875.856 111.56 874.903 111.872 874.143 112.495C873.392 113.118 872.828 113.956 872.453 115.01C872.086 116.054 871.903 117.222 871.903 118.514C871.903 119.797 872.086 120.96 872.453 122.005C872.828 123.049 873.392 123.883 874.143 124.506C874.903 125.12 875.856 125.427 877.002 125.427ZM904.766 120.122V107.891H909.741V129H904.917V125.248H904.697C904.221 126.43 903.437 127.397 902.347 128.148C901.266 128.899 899.933 129.275 898.348 129.275C896.964 129.275 895.741 128.968 894.678 128.354C893.625 127.731 892.8 126.829 892.205 125.647C891.609 124.456 891.311 123.017 891.311 121.331V107.891H896.286V120.562C896.286 121.9 896.653 122.962 897.386 123.75C898.119 124.538 899.081 124.932 900.272 124.932C901.005 124.932 901.715 124.753 902.402 124.396C903.089 124.039 903.652 123.507 904.092 122.802C904.541 122.087 904.766 121.194 904.766 120.122ZM914.856 129V107.891H919.68V111.409H919.9C920.285 110.191 920.945 109.251 921.879 108.592C922.823 107.923 923.899 107.589 925.109 107.589C925.383 107.589 925.69 107.602 926.029 107.63C926.378 107.648 926.666 107.68 926.895 107.726V112.302C926.684 112.229 926.35 112.165 925.892 112.11C925.443 112.046 925.008 112.014 924.586 112.014C923.679 112.014 922.864 112.211 922.14 112.605C921.426 112.99 920.862 113.525 920.45 114.213C920.037 114.9 919.831 115.692 919.831 116.59V129H914.856ZM949.145 129.412C947.029 129.412 945.201 128.973 943.662 128.093C942.131 127.204 940.954 125.949 940.13 124.327C939.305 122.697 938.893 120.777 938.893 118.569C938.893 116.398 939.305 114.492 940.13 112.852C940.963 111.203 942.127 109.92 943.62 109.004C945.114 108.079 946.868 107.616 948.884 107.616C950.185 107.616 951.413 107.827 952.567 108.248C953.73 108.661 954.757 109.302 955.645 110.172C956.543 111.043 957.249 112.151 957.762 113.498C958.275 114.836 958.531 116.43 958.531 118.281V119.806H941.229V116.453H953.763C953.753 115.5 953.547 114.652 953.144 113.91C952.741 113.159 952.178 112.568 951.454 112.137C950.739 111.707 949.905 111.492 948.953 111.492C947.936 111.492 947.042 111.739 946.273 112.234C945.503 112.719 944.903 113.361 944.472 114.158C944.051 114.946 943.836 115.811 943.826 116.755V119.682C943.826 120.91 944.051 121.964 944.5 122.843C944.949 123.714 945.576 124.382 946.383 124.85C947.189 125.308 948.133 125.537 949.214 125.537C949.937 125.537 950.593 125.436 951.179 125.234C951.765 125.024 952.274 124.717 952.704 124.314C953.135 123.911 953.46 123.411 953.68 122.816L958.325 123.338C958.032 124.566 957.473 125.638 956.649 126.554C955.833 127.461 954.789 128.166 953.515 128.67C952.242 129.165 950.785 129.412 949.145 129.412ZM971.948 129.412C969.841 129.412 968.031 128.95 966.519 128.024C965.017 127.099 963.858 125.821 963.042 124.19C962.236 122.55 961.833 120.663 961.833 118.528C961.833 116.384 962.245 114.492 963.07 112.852C963.894 111.203 965.058 109.92 966.561 109.004C968.072 108.079 969.859 107.616 971.92 107.616C973.634 107.616 975.15 107.932 976.469 108.564C977.798 109.187 978.856 110.071 979.644 111.217C980.432 112.353 980.881 113.681 980.991 115.202H976.236C976.043 114.185 975.585 113.338 974.861 112.66C974.147 111.973 973.189 111.629 971.989 111.629C970.972 111.629 970.079 111.904 969.309 112.454C968.54 112.994 967.939 113.773 967.509 114.79C967.087 115.807 966.877 117.025 966.877 118.445C966.877 119.884 967.087 121.121 967.509 122.156C967.93 123.182 968.521 123.975 969.282 124.534C970.051 125.083 970.954 125.358 971.989 125.358C972.722 125.358 973.377 125.221 973.954 124.946C974.541 124.662 975.031 124.254 975.425 123.723C975.819 123.191 976.089 122.545 976.236 121.785H980.991C980.872 123.278 980.432 124.602 979.671 125.757C978.911 126.902 977.876 127.8 976.565 128.45C975.255 129.092 973.716 129.412 971.948 129.412ZM994.283 129.412C992.222 129.412 990.435 128.959 988.924 128.052C987.412 127.145 986.239 125.876 985.406 124.245C984.581 122.614 984.169 120.708 984.169 118.528C984.169 116.347 984.581 114.437 985.406 112.797C986.239 111.157 987.412 109.884 988.924 108.977C990.435 108.07 992.222 107.616 994.283 107.616C996.345 107.616 998.131 108.07 999.643 108.977C1001.15 109.884 1002.32 111.157 1003.15 112.797C1003.98 114.437 1004.4 116.347 1004.4 118.528C1004.4 120.708 1003.98 122.614 1003.15 124.245C1002.32 125.876 1001.15 127.145 999.643 128.052C998.131 128.959 996.345 129.412 994.283 129.412ZM994.311 125.427C995.429 125.427 996.363 125.12 997.114 124.506C997.866 123.883 998.425 123.049 998.791 122.005C999.167 120.96 999.355 119.797 999.355 118.514C999.355 117.222 999.167 116.054 998.791 115.01C998.425 113.956 997.866 113.118 997.114 112.495C996.363 111.872 995.429 111.56 994.311 111.56C993.166 111.56 992.213 111.872 991.452 112.495C990.701 113.118 990.138 113.956 989.762 115.01C989.396 116.054 989.212 117.222 989.212 118.514C989.212 119.797 989.396 120.96 989.762 122.005C990.138 123.049 990.701 123.883 991.452 124.506C992.213 125.12 993.166 125.427 994.311 125.427ZM1025.3 113.471L1020.77 113.965C1020.64 113.507 1020.42 113.077 1020.1 112.673C1019.78 112.27 1019.36 111.945 1018.83 111.698C1018.3 111.45 1017.65 111.327 1016.88 111.327C1015.84 111.327 1014.97 111.551 1014.27 112C1013.57 112.449 1013.23 113.031 1013.24 113.745C1013.23 114.359 1013.45 114.859 1013.91 115.243C1014.38 115.628 1015.15 115.944 1016.22 116.192L1019.82 116.961C1021.82 117.392 1023.3 118.074 1024.27 119.009C1025.25 119.943 1025.75 121.167 1025.76 122.678C1025.75 124.007 1025.36 125.179 1024.59 126.196C1023.83 127.204 1022.77 127.992 1021.42 128.56C1020.06 129.128 1018.5 129.412 1016.74 129.412C1014.16 129.412 1012.08 128.872 1010.5 127.791C1008.93 126.7 1007.99 125.184 1007.69 123.242L1012.54 122.774C1012.76 123.727 1013.22 124.447 1013.94 124.932C1014.65 125.418 1015.58 125.66 1016.73 125.66C1017.91 125.66 1018.86 125.418 1019.57 124.932C1020.3 124.447 1020.66 123.846 1020.66 123.132C1020.66 122.527 1020.43 122.028 1019.96 121.634C1019.5 121.24 1018.79 120.937 1017.81 120.727L1014.21 119.971C1012.19 119.549 1010.69 118.839 1009.72 117.841C1008.75 116.833 1008.27 115.559 1008.28 114.02C1008.27 112.719 1008.62 111.592 1009.34 110.639C1010.06 109.677 1011.06 108.935 1012.35 108.413C1013.64 107.882 1015.13 107.616 1016.81 107.616C1019.29 107.616 1021.23 108.143 1022.65 109.196C1024.08 110.25 1024.97 111.675 1025.3 113.471ZM1032.95 136.916C1032.27 136.916 1031.65 136.861 1031.07 136.751C1030.5 136.65 1030.05 136.531 1029.71 136.394L1030.86 132.518C1031.59 132.729 1032.23 132.83 1032.8 132.821C1033.37 132.811 1033.87 132.633 1034.3 132.285C1034.74 131.946 1035.11 131.378 1035.41 130.58L1035.84 129.44L1028.18 107.891H1033.46L1038.33 123.833H1038.55L1043.42 107.891H1048.72L1040.26 131.556C1039.87 132.674 1039.35 133.631 1038.7 134.428C1038.05 135.235 1037.25 135.849 1036.31 136.27C1035.37 136.701 1034.25 136.916 1032.95 136.916ZM1068.84 113.471L1064.31 113.965C1064.18 113.507 1063.95 113.077 1063.63 112.673C1063.32 112.27 1062.9 111.945 1062.37 111.698C1061.84 111.45 1061.19 111.327 1060.42 111.327C1059.38 111.327 1058.51 111.551 1057.81 112C1057.11 112.449 1056.77 113.031 1056.78 113.745C1056.77 114.359 1056.99 114.859 1057.45 115.243C1057.92 115.628 1058.69 115.944 1059.76 116.192L1063.36 116.961C1065.36 117.392 1066.84 118.074 1067.81 119.009C1068.79 119.943 1069.29 121.167 1069.3 122.678C1069.29 124.007 1068.9 125.179 1068.13 126.196C1067.37 127.204 1066.31 127.992 1064.95 128.56C1063.6 129.128 1062.04 129.412 1060.28 129.412C1057.7 129.412 1055.62 128.872 1054.04 127.791C1052.47 126.7 1051.53 125.184 1051.22 123.242L1056.07 122.774C1056.29 123.727 1056.76 124.447 1057.48 124.932C1058.19 125.418 1059.12 125.66 1060.27 125.66C1061.45 125.66 1062.4 125.418 1063.11 124.932C1063.84 124.447 1064.2 123.846 1064.2 123.132C1064.2 122.527 1063.96 122.028 1063.5 121.634C1063.04 121.24 1062.32 120.937 1061.35 120.727L1057.75 119.971C1055.73 119.549 1054.23 118.839 1053.26 117.841C1052.29 116.833 1051.81 115.559 1051.81 114.02C1051.81 112.719 1052.16 111.592 1052.87 110.639C1053.6 109.677 1054.6 108.935 1055.88 108.413C1057.17 107.882 1058.66 107.616 1060.35 107.616C1062.82 107.616 1064.77 108.143 1066.19 109.196C1067.62 110.25 1068.5 111.675 1068.84 113.471ZM1083.94 107.891V111.739H1071.8V107.891H1083.94ZM1074.8 102.834H1079.77V122.651C1079.77 123.32 1079.88 123.833 1080.08 124.19C1080.29 124.538 1080.56 124.776 1080.9 124.905C1081.24 125.033 1081.62 125.097 1082.03 125.097C1082.34 125.097 1082.62 125.074 1082.88 125.028C1083.15 124.982 1083.35 124.941 1083.49 124.905L1084.32 128.794C1084.06 128.885 1083.68 128.986 1083.18 129.096C1082.7 129.206 1082.1 129.27 1081.4 129.289C1080.15 129.325 1079.03 129.137 1078.03 128.725C1077.03 128.304 1076.24 127.653 1075.65 126.774C1075.07 125.894 1074.79 124.795 1074.8 123.475V102.834ZM1097.22 129.412C1095.1 129.412 1093.27 128.973 1091.73 128.093C1090.2 127.204 1089.03 125.949 1088.2 124.327C1087.38 122.697 1086.97 120.777 1086.97 118.569C1086.97 116.398 1087.38 114.492 1088.2 112.852C1089.04 111.203 1090.2 109.92 1091.69 109.004C1093.19 108.079 1094.94 107.616 1096.96 107.616C1098.26 107.616 1099.49 107.827 1100.64 108.248C1101.8 108.661 1102.83 109.302 1103.72 110.172C1104.62 111.043 1105.32 112.151 1105.83 113.498C1106.35 114.836 1106.6 116.43 1106.6 118.281V119.806H1089.3V116.453H1101.84C1101.83 115.5 1101.62 114.652 1101.22 113.91C1100.81 113.159 1100.25 112.568 1099.53 112.137C1098.81 111.707 1097.98 111.492 1097.03 111.492C1096.01 111.492 1095.12 111.739 1094.35 112.234C1093.58 112.719 1092.98 113.361 1092.55 114.158C1092.12 114.946 1091.91 115.811 1091.9 116.755V119.682C1091.9 120.91 1092.12 121.964 1092.57 122.843C1093.02 123.714 1093.65 124.382 1094.46 124.85C1095.26 125.308 1096.21 125.537 1097.29 125.537C1098.01 125.537 1098.67 125.436 1099.25 125.234C1099.84 125.024 1100.35 124.717 1100.78 124.314C1101.21 123.911 1101.53 123.411 1101.75 122.816L1106.4 123.338C1106.1 124.566 1105.55 125.638 1104.72 126.554C1103.91 127.461 1102.86 128.166 1101.59 128.67C1100.31 129.165 1098.86 129.412 1097.22 129.412ZM1110.81 129V107.891H1115.57V111.478H1115.82C1116.26 110.268 1116.98 109.325 1118 108.647C1119.02 107.96 1120.23 107.616 1121.64 107.616C1123.07 107.616 1124.28 107.964 1125.26 108.661C1126.25 109.348 1126.94 110.287 1127.35 111.478H1127.57C1128.03 110.305 1128.82 109.371 1129.93 108.674C1131.05 107.969 1132.37 107.616 1133.9 107.616C1135.84 107.616 1137.43 108.23 1138.66 109.458C1139.88 110.685 1140.5 112.476 1140.5 114.831V129H1135.51V115.601C1135.51 114.291 1135.16 113.333 1134.46 112.728C1133.77 112.115 1132.92 111.808 1131.91 111.808C1130.71 111.808 1129.77 112.183 1129.09 112.935C1128.42 113.677 1128.09 114.643 1128.09 115.834V129H1123.21V115.395C1123.21 114.304 1122.88 113.434 1122.22 112.783C1121.57 112.133 1120.72 111.808 1119.66 111.808C1118.95 111.808 1118.3 111.991 1117.71 112.357C1117.13 112.715 1116.66 113.223 1116.31 113.883C1115.96 114.533 1115.79 115.294 1115.79 116.164V129H1110.81Z" fill="black"/>
</svg>
